<svg xmlns="http://www.w3.org/2000/svg" xmlns:xlink="http://www.w3.org/1999/xlink" preserveAspectRatio="xMidYMid meet" width="694" height="694" viewBox="0 0 694 694" style="width:100%;height:100%"><defs><animateTransform repeatCount="indefinite" dur="3s" begin="0s" xlink:href="#_R_G_L_11_G" fill="freeze" attributeName="transform" from="0" to="0" type="rotate" additive="sum" keyTimes="0;0.2888889;0.5888889;0.8777778;1" values="0;7;7;0;0" keySplines="0.333 0 0.667 1;0.333 0 0.667 1;0.333 0 0.667 1;0 0 0 0" calcMode="spline"/><animateTransform repeatCount="indefinite" dur="3s" begin="0s" xlink:href="#_R_G_L_11_G" fill="freeze" attributeName="transform" from="-34.529 -107.543" to="-34.529 -107.543" type="translate" additive="sum" keyTimes="0;1" values="-34.529 -107.543;-34.529 -107.543" keySplines="0 0 1 1" calcMode="spline"/><animateTransform repeatCount="indefinite" dur="3s" begin="0s" xlink:href="#_R_G_L_10_G" fill="freeze" attributeName="transform" from="1 1" to="1 1" type="scale" additive="sum" keyTimes="0;0.2111111;0.2444444;0.2777778;0.6111111;0.6444444;0.6777778;1" values="1 1;1 1;1 0;1 1;1 1;1 0;1 1;1 1" keySplines="0.167 0.167 0.833 0.833;0.167 0.167 0.833 0.833;0.167 0.167 0.833 0.833;0.167 0.167 0.833 0.833;0.167 0.167 0.833 0.833;0.167 0.167 0.833 0.833;0 0 0 0" calcMode="spline"/><animateTransform repeatCount="indefinite" dur="3s" begin="0s" xlink:href="#_R_G_L_10_G" fill="freeze" attributeName="transform" from="-10.962 -3.398" to="-10.962 -3.398" type="translate" additive="sum" keyTimes="0;1" values="-10.962 -3.398;-10.962 -3.398" keySplines="0 0 1 1" calcMode="spline"/><animateTransform repeatCount="indefinite" dur="3s" begin="0s" xlink:href="#_R_G_L_10_G_N_12_T_0" fill="freeze" attributeName="transform" from="0" to="0" type="rotate" additive="sum" keyTimes="0;0.2888889;0.5888889;0.8777778;1" values="0;7;7;0;0" keySplines="0.333 0 0.667 1;0.333 0 0.667 1;0.333 0 0.667 1;0 0 0 0" calcMode="spline"/><animateTransform repeatCount="indefinite" dur="3s" begin="0s" xlink:href="#_R_G_L_10_G_N_12_T_0" fill="freeze" attributeName="transform" from="-34.529 -107.543" to="-34.529 -107.543" type="translate" additive="sum" keyTimes="0;1" values="-34.529 -107.543;-34.529 -107.543" keySplines="0 0 1 1" calcMode="spline"/><animate repeatCount="indefinite" dur="3s" begin="0s" xlink:href="#_R_G_L_9_G" fill="freeze" attributeName="opacity" from="0" to="0" keyTimes="0;0.1666667;0.3888889;0.7111111;0.9111111;1" values="0;0;1;1;0;0" keySplines="0.333 0 0.667 1;0.333 0 0.667 1;0.333 0 0.667 1;0.333 0 0.667 1;0 0 0 0" calcMode="spline"/><animateMotion repeatCount="indefinite" dur="3s" begin="0s" xlink:href="#_R_G_L_9_G" fill="freeze" keyTimes="0;0.1666667;0.9111111;1" path="M143.32 501.45 C143.32,501.45 143.32,501.45 143.32,501.45 C143.32,501.45 143.32,490.95 143.32,490.95 C143.32,490.95 143.32,490.95 143.32,490.95 " keyPoints="0;0;1;1" keySplines="0.333 0 0.667 1;0.333 0 0.667 1;0 0 0 0" calcMode="spline"/><animateTransform repeatCount="indefinite" dur="3s" begin="0s" xlink:href="#_R_G_L_9_G" fill="freeze" attributeName="transform" from="-14.243 -25.558" to="-14.243 -25.558" type="translate" additive="sum" keyTimes="0;1" values="-14.243 -25.558;-14.243 -25.558" keySplines="0 0 1 1" calcMode="spline"/><animate repeatCount="indefinite" dur="3s" begin="0s" xlink:href="#_R_G_L_8_G" fill="freeze" attributeName="opacity" from="0" to="0" keyTimes="0;0.3555556;0.7222222;0.9888889;1" values="0;1;1;0;0" keySplines="0.333 0 0.667 1;0.333 0 0.667 1;0.333 0 0.667 1;0 0 0 0" calcMode="spline"/><animateMotion repeatCount="indefinite" dur="3s" begin="0s" xlink:href="#_R_G_L_8_G" fill="freeze" keyTimes="0;1" path="M135 495 C135,495 135,465.5 135,465.5 " keyPoints="0;1" keySplines="0.333 0 0.667 1" calcMode="spline"/><animateTransform repeatCount="indefinite" dur="3s" begin="0s" xlink:href="#_R_G_L_8_G" fill="freeze" attributeName="transform" from="0" to="7" type="rotate" additive="sum" keyTimes="0;0.9888889;1" values="0;7;7" keySplines="0.167 0.167 0.833 0.833;0 0 0 0" calcMode="spline"/><animateMotion repeatCount="indefinite" dur="3s" begin="0s" xlink:href="#_R_G_L_7_G" fill="freeze" keyTimes="0;0.4;0.7444444;1" path="M155.64 421.25 C155.64,421.25 166.64,429.75 166.64,429.75 C166.64,429.75 157.14,433.25 157.14,433.25 C157.14,433.25 155.64,421.25 155.64,421.25 " keyPoints="0;0.38;0.67;1" keySplines="0.333 0 0.667 1;0.333 0 0.667 1;0.333 0 0.667 1" calcMode="spline"/><animateTransform repeatCount="indefinite" dur="3s" begin="0s" xlink:href="#_R_G_L_7_G" fill="freeze" attributeName="transform" from="1.09 1.09" to="1.09 1.09" type="scale" additive="sum" keyTimes="0;0.3666667;0.9888889;1" values="1.09 1.09;0.76 0.76;1.09 1.09;1.09 1.09" keySplines="0.167 0 0.667 1;0.333 0 0.667 1;0 0 0 0" calcMode="spline"/><animateTransform repeatCount="indefinite" dur="3s" begin="0s" xlink:href="#_R_G_L_7_G" fill="freeze" attributeName="transform" from="-40.672 -40.671" to="-40.672 -40.671" type="translate" additive="sum" keyTimes="0;1" values="-40.672 -40.671;-40.672 -40.671" keySplines="0 0 1 1" calcMode="spline"/><animateMotion repeatCount="indefinite" dur="3s" begin="0s" xlink:href="#_R_G_L_6_G" fill="freeze" keyTimes="0;0.1666667;0.6222222;1" path="M155.64 299.25 C155.64,299.25 166.64,307.75 166.64,307.75 C166.64,307.75 157.14,311.25 157.14,311.25 C157.14,311.25 155.64,299.25 155.64,299.25 " keyPoints="0;0.38;0.67;1" keySplines="0.333 0 0.667 1;0.333 0 0.667 1;0.333 0 0.667 1" calcMode="spline"/><animateTransform repeatCount="indefinite" dur="3s" begin="0s" xlink:href="#_R_G_L_6_G" fill="freeze" attributeName="transform" from="0.8200000000000001 0.8200000000000001" to="0.8200000000000001 0.8200000000000001" type="scale" additive="sum" keyTimes="0;0.6666667;0.9888889;1" values="0.8200000000000001 0.8200000000000001;0.76 0.76;0.8200000000000001 0.8200000000000001;0.8200000000000001 0.8200000000000001" keySplines="0.167 0 0.667 1;0.333 0 0.667 1;0 0 0 0" calcMode="spline"/><animateTransform repeatCount="indefinite" dur="3s" begin="0s" xlink:href="#_R_G_L_6_G" fill="freeze" attributeName="transform" from="-40.672 -40.671" to="-40.672 -40.671" type="translate" additive="sum" keyTimes="0;1" values="-40.672 -40.671;-40.672 -40.671" keySplines="0 0 1 1" calcMode="spline"/><animateMotion repeatCount="indefinite" dur="3s" begin="0s" xlink:href="#_R_G_L_5_G" fill="freeze" keyTimes="0;0.3444444;0.5666667;1" path="M231.64 209.25 C231.64,209.25 242.64,217.75 242.64,217.75 C242.64,217.75 233.14,221.25 233.14,221.25 C233.14,221.25 231.64,209.25 231.64,209.25 " keyPoints="0;0.38;0.67;1" keySplines="0.333 0 0.667 1;0.333 0 0.667 1;0.333 0 0.667 1" calcMode="spline"/><animateTransform repeatCount="indefinite" dur="3s" begin="0s" xlink:href="#_R_G_L_5_G" fill="freeze" attributeName="transform" from="1.24 1.24" to="1.24 1.24" type="scale" additive="sum" keyTimes="0;0.4333333;0.9888889;1" values="1.24 1.24;0.76 0.76;1.24 1.24;1.24 1.24" keySplines="0.167 0 0.667 1;0.333 0 0.667 1;0 0 0 0" calcMode="spline"/><animateTransform repeatCount="indefinite" dur="3s" begin="0s" xlink:href="#_R_G_L_5_G" fill="freeze" attributeName="transform" from="-40.672 -40.671" to="-40.672 -40.671" type="translate" additive="sum" keyTimes="0;1" values="-40.672 -40.671;-40.672 -40.671" keySplines="0 0 1 1" calcMode="spline"/><animateMotion repeatCount="indefinite" dur="3s" begin="0s" xlink:href="#_R_G_L_4_G" fill="freeze" keyTimes="0;0.2666667;0.7;1" path="M323.64 157.25 C323.64,157.25 334.64,165.75 334.64,165.75 C334.64,165.75 325.14,169.25 325.14,169.25 C325.14,169.25 323.64,157.25 323.64,157.25 " keyPoints="0;0.38;0.67;1" keySplines="0.333 0 0.667 1;0.333 0 0.667 1;0.333 0 0.667 1" calcMode="spline"/><animateTransform repeatCount="indefinite" dur="3s" begin="0s" xlink:href="#_R_G_L_4_G" fill="freeze" attributeName="transform" from="0.8 0.8" to="0.8 0.8" type="scale" additive="sum" keyTimes="0;0.6;0.9888889;1" values="0.8 0.8;0.76 0.76;0.8 0.8;0.8 0.8" keySplines="0.167 0 0.667 1;0.333 0 0.667 1;0 0 0 0" calcMode="spline"/><animateTransform repeatCount="indefinite" dur="3s" begin="0s" xlink:href="#_R_G_L_4_G" fill="freeze" attributeName="transform" from="-40.672 -40.671" to="-40.672 -40.671" type="translate" additive="sum" keyTimes="0;1" values="-40.672 -40.671;-40.672 -40.671" keySplines="0 0 1 1" calcMode="spline"/><animateMotion repeatCount="indefinite" dur="3s" begin="0s" xlink:href="#_R_G_L_3_G" fill="freeze" keyTimes="0;0.4444444;0.8;1" path="M451.64 291.25 C451.64,291.25 462.64,299.75 462.64,299.75 C462.64,299.75 453.14,303.25 453.14,303.25 C453.14,303.25 451.64,291.25 451.64,291.25 " keyPoints="0;0.38;0.67;1" keySplines="0.333 0 0.667 1;0.333 0 0.667 1;0.333 0 0.667 1" calcMode="spline"/><animateTransform repeatCount="indefinite" dur="3s" begin="0s" xlink:href="#_R_G_L_3_G" fill="freeze" attributeName="transform" from="0.6 0.6" to="0.6 0.6" type="scale" additive="sum" keyTimes="0;0.3222222;0.9888889;1" values="0.6 0.6;0.76 0.76;0.6 0.6;0.6 0.6" keySplines="0.167 0 0.667 1;0.333 0 0.667 1;0 0 0 0" calcMode="spline"/><animateTransform repeatCount="indefinite" dur="3s" begin="0s" xlink:href="#_R_G_L_3_G" fill="freeze" attributeName="transform" from="-40.672 -40.671" to="-40.672 -40.671" type="translate" additive="sum" keyTimes="0;1" values="-40.672 -40.671;-40.672 -40.671" keySplines="0 0 1 1" calcMode="spline"/><animateMotion repeatCount="indefinite" dur="3s" begin="0s" xlink:href="#_R_G_L_2_G" fill="freeze" keyTimes="0;0.3444444;0.6222222;1" path="M559.64 257.25 C559.64,257.25 570.64,265.75 570.64,265.75 C570.64,265.75 561.14,269.25 561.14,269.25 C561.14,269.25 559.64,257.25 559.64,257.25 " keyPoints="0;0.38;0.67;1" keySplines="0.333 0 0.667 1;0.333 0 0.667 1;0.333 0 0.667 1" calcMode="spline"/><animateTransform repeatCount="indefinite" dur="3s" begin="0s" xlink:href="#_R_G_L_2_G" fill="freeze" attributeName="transform" from="1.1300000000000001 1.1300000000000001" to="1.1300000000000001 1.1300000000000001" type="scale" additive="sum" keyTimes="0;0.5444444;0.9888889;1" values="1.1300000000000001 1.1300000000000001;0.76 0.76;1.1300000000000001 1.1300000000000001;1.1300000000000001 1.1300000000000001" keySplines="0.167 0 0.667 1;0.333 0 0.667 1;0 0 0 0" calcMode="spline"/><animateTransform repeatCount="indefinite" dur="3s" begin="0s" xlink:href="#_R_G_L_2_G" fill="freeze" attributeName="transform" from="-40.672 -40.671" to="-40.672 -40.671" type="translate" additive="sum" keyTimes="0;1" values="-40.672 -40.671;-40.672 -40.671" keySplines="0 0 1 1" calcMode="spline"/><animateMotion repeatCount="indefinite" dur="3s" begin="0s" xlink:href="#_R_G_L_1_G" fill="freeze" keyTimes="0;0.2222222;0.7555556;1" path="M453.64 173.25 C453.64,173.25 464.64,181.75 464.64,181.75 C464.64,181.75 455.14,185.25 455.14,185.25 C455.14,185.25 453.64,173.25 453.64,173.25 " keyPoints="0;0.38;0.67;1" keySplines="0.333 0 0.667 1;0.333 0 0.667 1;0.333 0 0.667 1" calcMode="spline"/><animateTransform repeatCount="indefinite" dur="3s" begin="0s" xlink:href="#_R_G_L_1_G" fill="freeze" attributeName="transform" from="1.16 1.16" to="1.16 1.16" type="scale" additive="sum" keyTimes="0;0.7333333;0.9888889;1" values="1.16 1.16;0.76 0.76;1.16 1.16;1.16 1.16" keySplines="0.167 0 0.667 1;0.333 0 0.667 1;0 0 0 0" calcMode="spline"/><animateTransform repeatCount="indefinite" dur="3s" begin="0s" xlink:href="#_R_G_L_1_G" fill="freeze" attributeName="transform" from="-40.672 -40.671" to="-40.672 -40.671" type="translate" additive="sum" keyTimes="0;1" values="-40.672 -40.671;-40.672 -40.671" keySplines="0 0 1 1" calcMode="spline"/><animateMotion repeatCount="indefinite" dur="3s" begin="0s" xlink:href="#_R_G_L_0_G" fill="freeze" keyTimes="0;0.2777778;0.7;1" path="M559.64 373.25 C559.64,373.25 570.64,381.75 570.64,381.75 C570.64,381.75 561.14,385.25 561.14,385.25 C561.14,385.25 559.64,373.25 559.64,373.25 " keyPoints="0;0.38;0.67;1" keySplines="0.333 0 0.667 1;0.333 0 0.667 1;0.333 0 0.667 1" calcMode="spline"/><animateTransform repeatCount="indefinite" dur="3s" begin="0s" xlink:href="#_R_G_L_0_G" fill="freeze" attributeName="transform" from="0.71 0.71" to="0.71 0.71" type="scale" additive="sum" keyTimes="0;0.3888889;0.9888889;1" values="0.71 0.71;0.76 0.76;0.71 0.71;0.71 0.71" keySplines="0.167 0 0.667 1;0.333 0 0.667 1;0 0 0 0" calcMode="spline"/><animateTransform repeatCount="indefinite" dur="3s" begin="0s" xlink:href="#_R_G_L_0_G" fill="freeze" attributeName="transform" from="-40.672 -40.671" to="-40.672 -40.671" type="translate" additive="sum" keyTimes="0;1" values="-40.672 -40.671;-40.672 -40.671" keySplines="0 0 1 1" calcMode="spline"/><animate attributeType="XML" attributeName="opacity" dur="3s" from="0" to="1" xlink:href="#time_group"/></defs><g id="_R_G"><g id="_R_G_L_13_G" transform=" translate(411.003, 474.295) translate(-349.5, -168.274)"><path id="_R_G_L_13_G_D_0_P_0" stroke="#156419" stroke-linecap="round" stroke-linejoin="round" fill="none" stroke-width="5" stroke-opacity="1" d=" M-61.5 246.91 C-61.5,246.91 632.5,246.91 632.5,246.91 "/><path id="_R_G_L_13_G_D_1_P_0" fill="#daeadd" fill-opacity="1" fill-rule="nonzero" d=" M86.97 284.53 C105.19,284.53 119.95,281.78 119.95,278.39 C119.95,274.99 105.19,272.24 86.97,272.24 C68.76,272.24 53.99,274.99 53.99,278.39 C53.99,281.78 68.76,284.53 86.97,284.53z "/><path id="_R_G_L_13_G_D_2_P_0" fill="#1a7d1f" fill-opacity="1" fill-rule="nonzero" d=" M71.85 266.43 C64.71,266.43 56.77,256.21 56.77,249.29 C56.77,242.25 62.5,236.52 69.55,236.52 C76.6,236.52 82.34,242.25 82.34,249.29 C82.34,255.92 79.49,266.43 71.85,266.43z  M69.55 240.77 C64.9,240.77 61.11,244.59 61.11,249.29 C61.11,254.47 67.53,262.19 71.85,262.19 C75.81,262.19 78,254.56 78,249.29 C78,244.59 74.21,240.77 69.55,240.77z "/><path id="_R_G_L_13_G_D_3_P_0" fill="#1a7d1f" fill-opacity="1" fill-rule="nonzero" d=" M96.52 277.47 C96.52,277.47 77.74,277.47 77.74,277.47 C74.62,277.47 72.02,275.13 71.76,272.09 C71.76,272.09 67.88,226.32 67.88,226.32 C67.88,226.32 107.16,226.32 107.16,226.32 C107.16,226.32 102.49,272.19 102.49,272.19 C102.18,275.19 99.6,277.47 96.52,277.47z "/><path id="_R_G_L_13_G_D_4_P_0" fill="#daeadd" fill-opacity="1" fill-rule="nonzero" d=" M480.95 278.76 C480.95,270.8 408.44,264.35 319,264.35 C229.56,264.35 157.05,270.8 157.05,278.76 C157.05,285.22 204.76,290.68 270.51,292.52 C277.67,304.01 265.72,317.75 256.56,322.71 C240.47,323.5 228.93,325.25 230.75,328.98 C239.34,346.64 312.4,327.85 312.4,327.85 C312.4,327.85 340.96,329.59 340.96,326.93 C340.96,325.71 335.93,324.59 327.66,323.74 C327.66,323.74 328.27,323.71 328.27,323.71 C328.27,323.71 297.43,293.05 297.43,293.05 C304.49,293.14 311.69,293.18 319.01,293.18 C408.45,293.18 480.95,286.72 480.95,278.76z "/><path id="_R_G_L_13_G_D_5_P_0" fill="#5cbb61" fill-opacity="1" fill-rule="nonzero" d=" M495.26 172.87 C493.12,207.33 475.37,241.76 446.26,260.71 C411.56,283.3 363.05,278.3 323.53,281.18 C289.38,283.67 254.96,285.8 220.79,282.25 C192.79,279.32 164.55,268.48 151.18,241.89 C137.78,215.24 136.33,179.83 149.73,152.86 C154,144.25 159.72,136.6 166.44,129.93 C167.54,128.84 168.68,127.76 169.83,126.72 C170.61,126.02 171.4,125.32 172.21,124.64 C173.44,123.59 174.71,122.58 175.99,121.58 C176.42,121.26 176.84,120.94 177.27,120.62 C177.7,120.29 178.13,119.98 178.57,119.66 C179,119.35 179.44,119.04 179.88,118.73 C180.21,118.5 180.54,118.27 180.87,118.04 C181.42,117.66 181.97,117.29 182.53,116.92 C187.53,113.63 192.78,110.73 198.21,108.25 C203.48,105.81 208.92,103.75 214.38,102.09 C232.36,96.63 251.13,94.69 269.68,92.31 C309.03,87.26 349.1,85.54 388.77,85.56 C421.14,85.57 457.59,90.31 479.23,117.49 C491.45,132.84 496.48,153.24 495.26,172.87z "/><path id="_R_G_L_13_G_D_6_P_0" fill="#1d7e3f" fill-opacity="1" fill-rule="nonzero" d=" M198.21 108.25 C192.78,110.73 187.53,113.63 182.54,116.92 C181.97,117.29 181.41,117.66 180.87,118.04 C180.54,118.27 180.21,118.5 179.88,118.73 C179.44,119.04 179.01,119.35 178.57,119.67 C178.14,119.98 177.7,120.3 177.28,120.62 C176.84,120.94 176.42,121.26 175.99,121.59 C174.73,122.57 173.49,123.58 172.26,124.62 C172.26,124.62 172.21,124.64 172.21,124.64 C171.4,125.32 170.61,126.02 169.83,126.72 C168.68,127.77 167.54,128.84 166.45,129.93 C166.54,130.83 167.14,131.7 168.12,131.9 C174.63,133.19 177.9,139.26 183.15,142.72 C187.04,145.29 191.65,145.99 196.06,144.52 C191.31,154.36 188.69,164.11 190.74,175.12 C191.37,178.44 192.45,181.68 193.92,184.74 C187.82,180.31 181.95,170.82 179.53,161.19 C179.19,159.83 177.78,158.97 176.38,159.33 C174.99,159.66 174.13,161.04 174.47,162.41 C177.46,174.33 185.08,185.78 192.99,190.26 C194.88,191.32 196.79,192 198.69,192.32 C200.25,194.28 202,196.11 203.92,197.74 C203.92,197.74 215.62,200.94 215.62,200.94 C215.62,200.94 225.17,140.67 225.17,140.67 C225.17,140.67 198.21,108.25 198.21,108.25z "/><path id="_R_G_L_13_G_D_7_P_0" fill="#d1d4da" fill-opacity="1" fill-rule="nonzero" d=" M232.12 148.73 C207.93,139.51 191.14,129.71 181.39,123.19 C175.07,118.96 171.87,111.5 173.17,104.12 C173.17,104.12 185.64,33 185.64,33 C186.92,25.67 191.89,19.45 198.86,16.53 C218.87,8.13 238.36,3.34 255.55,1.01 C255.55,1.01 265.18,0.25 277.46,1.44 C285.54,2.22 304.05,7.55 315.81,11.12 C322.46,13.14 327.79,18.01 330.31,24.36 C335.24,36.79 343.25,57.79 345.81,69.14 C354.63,108.33 353.18,105.43 353.18,105.43 C353.18,105.43 362.3,165.71 362.3,165.71 C362.3,165.71 265.53,171.01 265.53,171.01 C265.53,171.01 240.8,159.98 240.8,159.98 C240.8,159.98 232.12,148.73 232.12,148.73z "/><path id="_R_G_L_13_G_D_8_P_0" fill="#b4b8c1" fill-opacity="1" fill-rule="nonzero" d=" M265.59 126.25 C249.18,91.57 228.5,108.12 223.44,95.39 C216.34,77.54 217.69,57.36 217.65,51.24 C217.65,51.24 207.77,105.68 207.77,105.68 C207.77,105.68 229.83,107.73 237.99,120.73 C237.99,120.73 265.59,126.25 265.59,126.25z "/><path id="_R_G_L_13_G_D_9_P_0" fill="#1f3c88" fill-opacity="1" fill-rule="nonzero" d=" M218.15 50.31 C217.54,54.97 216.81,59.6 216.06,64.24 C215.33,68.88 214.47,73.49 213.69,78.12 C212.87,82.74 212,87.36 211.08,91.96 C211.08,91.96 209.66,98.86 209.66,98.86 C209.15,101.15 208.68,103.45 208.13,105.74 C208.13,105.74 207.41,105.61 207.41,105.61 C207.69,103.28 208.05,100.96 208.38,98.63 C208.38,98.63 209.47,91.68 209.47,91.68 C210.22,87.04 211.02,82.42 211.87,77.8 C212.76,73.19 213.57,68.57 214.51,63.97 C215.43,59.36 216.38,54.76 217.44,50.18 C217.44,50.18 218.15,50.31 218.15,50.31z "/><path id="_R_G_L_13_G_D_10_P_0" fill="#1f3c88" fill-opacity="1" fill-rule="nonzero" d=" M314.03 41.7 C315.34,47.75 316.55,53.82 317.74,59.89 C318.95,65.95 320.04,72.04 321.19,78.12 C322.29,84.2 323.37,90.29 324.42,96.39 C324.42,96.39 325.93,105.54 325.93,105.54 C326.4,108.59 326.9,111.65 327.33,114.71 C327.33,114.71 326.67,114.83 326.67,114.83 C325.99,111.8 325.38,108.77 324.74,105.75 C324.74,105.75 322.93,96.64 322.93,96.64 C321.76,90.57 320.62,84.49 319.5,78.41 C318.44,72.32 317.31,66.24 316.3,60.14 C315.27,54.04 314.27,47.94 313.36,41.82 C313.36,41.82 314.03,41.7 314.03,41.7z "/><path id="_R_G_L_13_G_D_11_P_0" fill="#b4b8c1" fill-opacity="1" fill-rule="nonzero" d=" M318.62 69.77 C319.77,80.81 318.04,137.97 290.84,138.82 C290.84,138.82 291.13,151.27 291.13,151.27 C291.13,151.27 333.95,148.73 333.95,148.73 C333.95,148.73 318.62,69.77 318.62,69.77z "/><path id="_R_G_L_13_G_D_12_P_0" fill="#e28b6d" fill-opacity="1" fill-rule="nonzero" d=" M262.7 137.26 C282.02,129.2 285.71,129.5 288.31,129.62 C297.2,130.05 310,147.45 310,147.45 C310,147.45 309.78,150.64 309.78,150.64 C309.78,150.64 260.97,150.64 260.97,150.64 C260.97,150.64 262.7,137.26 262.7,137.26z "/><path id="_R_G_L_13_G_D_13_P_0" fill="#ffffff" fill-opacity="1" fill-rule="nonzero" d=" M336.98 147.52 C336.98,147.52 276.88,147.52 276.88,147.52 C276.88,147.52 276.88,156.44 276.88,156.44 C276.88,156.44 336.98,156.44 336.98,156.44 C336.98,156.44 336.98,147.52 336.98,147.52z "/><path id="_R_G_L_13_G_D_14_P_0" fill="#102048" fill-opacity="1" fill-rule="nonzero" d=" M267.27 276.91 C268.86,276.06 294.02,281.44 321.94,261.21 C321.94,261.21 285.92,251.16 285.92,251.16 C285.92,251.16 267.27,276.91 267.27,276.91z "/><path id="_R_G_L_13_G_D_15_P_0" fill="#1d7e3f" fill-opacity="1" fill-rule="nonzero" d=" M427.18 160.06 C428.38,158.39 429.42,155.92 427.9,154.51 C426.33,153.04 423.76,154.33 422.12,155.73 C419.21,158.17 416.57,160.85 414.13,163.71 C414.13,163.71 353.33,174.76 353.33,174.76 C353.33,174.76 270.02,194.56 270.02,194.56 C270.02,194.56 284.34,212.45 284.34,212.45 C326,215.42 349.72,216.18 375.79,211.69 C389.08,209.39 400.95,207.03 409.82,199.96 C411.92,198.27 413.92,195.44 412.55,193.14 C411.62,191.58 409.7,191.18 407.76,191.19 C412.21,190.17 416.53,188.66 420.64,186.7 C422.47,185.84 424.51,184.48 424.47,182.49 C424.44,181.07 423.26,179.86 421.9,179.35 C420.55,178.84 419.06,178.88 417.61,178.98 C412.05,179.39 406.56,180.58 401.34,182.5 C410.84,176.02 420.5,169.3 427.18,160.06z  M401.22 182.59 C401.22,182.57 401.23,182.56 401.25,182.54 C401.27,182.54 401.31,182.53 401.33,182.51 C401.3,182.54 401.25,182.56 401.22,182.59z "/><path id="_R_G_L_13_G_D_16_P_0" fill="#34363a" fill-opacity="1" fill-rule="nonzero" d=" M287.66 167.83 C287.66,167.83 368.8,130.05 395.27,131.75 C421.74,133.44 420.87,165.7 410.89,179.71 C400.91,193.72 377.48,212.4 291.13,206.88 C291.13,206.88 287.66,167.83 287.66,167.83z "/><path id="_R_G_L_13_G_D_17_P_0" fill="#d3dfff" fill-opacity="1" fill-rule="nonzero" d=" M328.27 323.71 C323.87,324.92 317.64,325.22 309.07,323.88 C309.07,323.88 297.96,326.7 287.03,328.92 C279.62,330.42 272.31,331.64 268.57,331.52 C268.25,331.52 267.92,331.5 267.59,331.47 C260.42,330.97 251.37,327.31 246.57,322.08 C246.57,322.07 246.56,322.05 246.54,322.04 C245.22,320.6 244.22,319.03 243.68,317.38 C241.08,309.45 246.58,299.83 276.37,301.81 C276.37,301.81 286.21,299.55 288.52,292.47 C290.84,285.4 273.77,251.45 273.77,251.45 C273.77,251.45 298.07,235.32 298.07,235.32 C298.07,235.32 321.93,261.21 321.93,261.21 C321.93,261.21 325.55,284.55 325.55,292.19 C325.55,292.19 335.67,306.35 337.12,312.57 C338.05,316.54 336.02,321.56 328.27,323.71z "/><path id="_R_G_L_13_G_D_18_P_0" fill="#1f3c88" fill-opacity="1" fill-rule="nonzero" d=" M191.64 108.7 C194.43,107.65 197.26,106.81 200.13,106.03 C201.56,105.65 203.01,105.29 204.48,105.01 C205.21,104.86 205.95,104.74 206.71,104.64 C207.09,104.58 207.46,104.55 207.86,104.52 C208.27,104.5 208.68,104.5 209.07,104.54 C212.19,104.86 215.01,105.82 217.82,106.83 C220.61,107.87 223.35,109.04 226.03,110.3 C228.73,111.54 231.34,112.93 233.92,114.39 C236.5,115.84 239.03,117.37 241.5,119.01 C246.39,122.31 251.1,125.94 255.16,130.22 C255.16,130.22 254.64,130.73 254.64,130.73 C252.46,128.8 250.19,126.97 247.83,125.26 C245.49,123.53 243.06,121.91 240.58,120.37 C235.66,117.22 230.5,114.46 225.24,111.91 C222.61,110.64 219.93,109.46 217.21,108.41 C214.49,107.41 211.71,106.35 208.94,105.98 C208.59,105.93 208.26,105.92 207.94,105.92 C207.6,105.94 207.23,105.97 206.88,106 C206.17,106.08 205.45,106.18 204.73,106.3 C203.29,106.55 201.85,106.83 200.42,107.15 C197.55,107.79 194.7,108.53 191.89,109.38 C191.89,109.38 191.64,108.7 191.64,108.7z "/><path id="_R_G_L_13_G_D_19_P_0" fill="#1d7e3f" fill-opacity="1" fill-rule="nonzero" d=" M206.08 219.83 C215.84,219.19 225.43,219.87 232.4,217.49 C239.85,214.94 259.31,216.64 259.31,216.64 C259.31,216.64 248.6,201.57 248.6,201.57 C248.6,201.57 205.21,212.18 205.21,212.18 C205.21,212.18 206.08,219.83 206.08,219.83z "/><path id="_R_G_L_13_G_D_20_P_0" fill="#414245" fill-opacity="1" fill-rule="nonzero" d=" M206.52 192.02 C196.54,176.32 196.54,145.33 209.12,131.32 C223.5,115.31 254.25,109.25 270.3,127.93 C286.36,146.6 315.87,214.94 321.94,261.21 C321.94,261.21 289.4,250.6 267.27,276.91 C267.27,276.91 238.19,211.97 232.12,188.2 C232.12,188.2 215.63,200.93 215.63,200.93 C215.63,200.93 206.52,192.02 206.52,192.02z "/><path id="_R_G_L_13_G_D_21_P_0" fill="#d3dfff" fill-opacity="1" fill-rule="nonzero" d=" M232.11 188.2 C232.11,188.2 227.78,186.65 221.7,190.6 C221.7,190.6 174.26,189.61 163.7,200.09 C153.14,210.55 161.24,224.56 176.72,226.12 C189.71,227.43 214.92,217.57 222.69,214.37 C224.27,213.72 225.95,213.33 227.66,213.22 C227.66,213.22 240.51,212.4 240.51,212.4 C240.51,212.4 232.11,188.2 232.11,188.2z "/><path id="_R_G_L_13_G_D_22_P_0" fill="#1f3c88" fill-opacity="1" fill-rule="nonzero" d=" M243.61 29.9 C247.06,32.28 250.75,34.33 254.65,35.78 C258.55,37.21 262.67,38.12 266.8,38.02 C270.92,37.98 275,36.98 278.68,35.14 C278.68,35.14 280.07,34.45 280.07,34.45 C280.52,34.2 280.94,33.89 281.38,33.62 C282.24,33.06 283.14,32.53 283.91,31.83 C283.91,31.83 285.13,30.87 285.13,30.87 C285.13,30.87 285.74,30.38 285.74,30.38 C285.93,30.21 286.11,30.02 286.3,29.84 C287.04,29.12 287.79,28.39 288.55,27.68 C288.55,27.68 289.07,28.1 289.07,28.1 C288.39,28.91 287.69,29.72 286.99,30.51 C286.81,30.71 286.64,30.92 286.45,31.11 C286.45,31.11 285.86,31.65 285.86,31.65 C285.86,31.65 284.69,32.74 284.69,32.74 C283.92,33.49 283.02,34.09 282.14,34.72 C281.7,35.03 281.28,35.37 280.81,35.65 C280.81,35.65 279.39,36.44 279.39,36.44 C275.59,38.54 271.2,39.68 266.82,39.7 C262.43,39.71 258.08,38.78 254.1,37.11 C250.11,35.45 246.43,33.15 243.19,30.41 C243.19,30.41 243.61,29.9 243.61,29.9z "/><path id="_R_G_L_13_G_D_23_P_0" fill="#102048" fill-opacity="1" fill-rule="nonzero" d=" M224.92 161.1 C224.92,161.1 228.68,173.97 228.68,173.97 C229.96,178.25 231.16,182.55 232.49,186.82 C233.8,191.08 235.1,195.35 236.48,199.6 C237.17,201.72 237.84,203.85 238.6,205.95 C238.96,207 239.29,208.07 239.68,209.12 C240.07,210.16 240.45,211.21 240.82,212.27 C240.82,212.27 240.19,212.52 240.19,212.52 C239.22,210.49 238.31,208.43 237.46,206.35 C236.6,204.28 235.83,202.17 235.04,200.07 C233.5,195.85 232.13,191.58 230.84,187.28 C229.59,182.98 228.35,178.68 227.26,174.34 C226.16,170 225.13,165.64 224.26,161.25 C224.26,161.25 224.92,161.1 224.92,161.1z "/><path id="_R_G_L_13_G_D_24_P_0" fill="#c1cff3" fill-opacity="1" fill-rule="nonzero" d=" M328.26 323.71 C323.87,324.92 317.64,325.22 309.07,323.88 C309.07,323.88 290.69,328.48 279.09,330.29 C291.02,327.95 308.38,313.52 306.42,304.4 C323.57,309.92 328.23,318.3 328.26,323.71z "/><path id="_R_G_L_13_G_D_25_P_0" fill="#8b9ecf" fill-opacity="1" fill-rule="nonzero" d=" M282.12 325.3 C279.91,327.97 276.61,329.78 273.15,330.69 C271.33,331.16 269.47,331.42 267.59,331.48 C260.42,330.98 251.37,327.32 246.57,322.09 C246.57,322.07 246.56,322.05 246.54,322.04 C246.03,321.36 245.55,320.66 245.13,319.93 C247.68,322.26 250.46,324.16 253.46,325.61 C254.96,326.3 256.48,326.97 258.07,327.44 C258.84,327.73 259.65,327.9 260.45,328.12 C261.23,328.36 262.06,328.45 262.88,328.6 C269.35,329.67 276.24,329 282.12,325.3z "/></g><g id="_R_G_L_12_G" transform=" translate(441.404, 417.347) translate(-66.166, -46.423)"><path id="_R_G_L_12_G_D_0_P_0" fill="#f9b384" fill-opacity="1" fill-rule="nonzero" d=" M114.88 49.77 C114.88,49.77 123.23,42.1 127.66,37.65 C132.08,33.21 122.43,33.07 117.67,38.6 C112.91,44.14 114.88,49.77 114.88,49.77z "/><path id="_R_G_L_12_G_D_1_P_0" fill="#807e79" fill-opacity="1" fill-rule="nonzero" d=" M104.97 91.54 C104.97,91.54 0.54,91.54 0.54,91.54 C0.54,91.54 23.97,0.25 23.97,0.25 C23.97,0.25 128.4,0.25 128.4,0.25 C128.4,0.25 104.97,91.54 104.97,91.54z "/><path id="_R_G_L_12_G_D_2_P_0" fill="#72716f" fill-opacity="1" fill-rule="nonzero" d=" M114.43 54.2 C104.1,52.69 70.69,45.9 1.84,86.94 C1.84,86.94 0.25,92.6 0.25,92.6 C0.25,92.6 104.97,91.54 104.97,91.54 C104.97,91.54 114.43,54.2 114.43,54.2z "/><path id="_R_G_L_12_G_D_3_P_0" fill="#f9b384" fill-opacity="1" fill-rule="nonzero" d=" M116.42 74.48 C115.77,78.78 115.55,85.1 101.94,84.3 C101.94,84.3 97.92,82.28 97.92,82.28 C97.92,82.28 101.72,78.2 101.72,78.2 C101.72,78.2 109.91,74.11 109.91,74.11 C109.91,74.11 116.42,74.48 116.42,74.48z "/><path id="_R_G_L_12_G_D_4_P_0" fill="#f9b384" fill-opacity="1" fill-rule="nonzero" d=" M117.7 62.88 C117.7,62.88 125.15,72.4 117.67,75.33 C109.53,78.52 101.72,78.2 101.72,78.2 C105.19,68.65 116.47,69.29 116.47,69.29 C116.47,69.29 117.7,62.88 117.7,62.88z "/><path id="_R_G_L_12_G_D_5_P_0" fill="#f9b384" fill-opacity="1" fill-rule="nonzero" d=" M117.92 56.73 C117.92,56.73 128.19,66.07 118.64,68.68 C105.16,72.38 101,72.65 101,72.65 C100.28,65.64 113.65,61.11 113.65,61.11 C113.65,61.11 117.92,56.73 117.92,56.73z "/><path id="_R_G_L_12_G_D_6_P_0" fill="#f9b384" fill-opacity="1" fill-rule="nonzero" d=" M115.82 48.59 C115.82,48.59 129.86,56.94 116.69,61.61 C103.53,66.28 100.42,66.21 100.42,66.21 C99.7,59.2 113.8,56.8 113.8,56.8 C113.8,56.8 115.82,48.59 115.82,48.59z "/><path id="_R_G_L_12_G_D_7_P_0" stroke="#263238" stroke-linecap="round" stroke-linejoin="round" fill="none" stroke-width="2.5" stroke-opacity="1" d=" M100.41 66.21 C100.41,66.21 115.71,64.09 120.27,60.48 "/><path id="_R_G_L_12_G_D_8_P_0" stroke="#263238" stroke-linecap="round" stroke-linejoin="round" fill="none" stroke-width="2.5" stroke-opacity="1" d=" M100.99 72.64 C100.99,72.64 116.9,70.45 121.89,67.05 "/><path id="_R_G_L_12_G_D_9_P_0" stroke="#263238" stroke-linecap="round" stroke-linejoin="round" fill="none" stroke-width="2.5" stroke-opacity="1" d=" M101.72 78.2 C101.72,78.2 111.16,78.52 116.47,75.97 "/></g><g id="_R_G_L_11_G" transform=" translate(327.353, 329.433)"><path id="_R_G_L_11_G_D_0_P_0" fill="#102048" fill-opacity="1" fill-rule="nonzero" d=" M60.67 17.44 C60.67,17.44 52.1,0.25 29.32,8.1 C12.83,4.6 0.25,23.7 12.4,49.7 C12.4,49.7 35.29,54.9 35.29,54.9 C35.29,54.9 60.67,17.44 60.67,17.44z "/><path id="_R_G_L_11_G_D_1_P_0" fill="#f9b384" fill-opacity="1" fill-rule="nonzero" d=" M48.53 66.04 C48.53,66.04 48.53,96.45 48.53,96.45 C48.53,103.56 42.63,109.34 35.35,109.34 C25.49,109.34 17.5,101.52 17.5,91.88 C17.5,91.88 17.5,66.04 17.5,66.04 C17.5,66.04 48.53,66.04 48.53,66.04z "/><path id="_R_G_L_11_G_D_2_P_0" fill="#e28b6d" fill-opacity="1" fill-rule="nonzero" d=" M48.53 78.66 C48.53,78.66 48.53,95.25 48.53,95.25 C34.71,95.31 25.53,77.83 25.53,77.83 C25.53,77.83 48.53,78.66 48.53,78.66z "/><path id="_R_G_L_11_G_D_3_P_0" fill="#f9b384" fill-opacity="1" fill-rule="nonzero" d=" M62.2 62.21 C61.37,66.42 60.18,70.74 58.47,74.53 C55.49,81.19 50.93,86.27 43.97,86.42 C27.67,86.76 15.11,64.98 15.11,64.98 C15.11,64.98 17.71,35.27 17.71,35.27 C17.71,35.27 30.08,21.68 30.08,21.68 C30.08,21.68 64.15,42.27 64.15,42.27 C64.15,42.27 64.24,51.93 62.2,62.21z "/><path id="_R_G_L_11_G_D_4_P_0" fill="#102048" fill-opacity="1" fill-rule="nonzero" d=" M17.18 56.28 C17.18,56.28 20.54,42.91 32.26,34.21 C32.26,34.21 49.29,55.96 67.3,45.46 C85.31,34.95 77.5,14.26 60.68,17.44 C60.68,17.44 41.37,15.32 41.37,15.32 C41.37,15.32 17.18,22.86 17.18,22.86 C17.18,22.86 13.05,41.43 13.05,41.43 C13.05,41.43 17.18,56.28 17.18,56.28z "/><path id="_R_G_L_11_G_D_5_P_0" fill="#f9b384" fill-opacity="1" fill-rule="nonzero" d=" M19.74 57.15 C19.74,57.15 16.56,46.83 9.56,49.41 C2.56,51.99 6.28,65.42 20.1,69.15 C20.1,69.15 19.74,57.15 19.74,57.15z "/><path id="_R_G_L_11_G_D_6_P_0" fill="#e28b6d" fill-opacity="1" fill-rule="nonzero" d=" M16.6 58.61 C16.44,57.68 15.99,56.82 15.47,56.03 C14.93,55.25 14.29,54.52 13.55,54.01 C12.81,53.5 12.01,53.25 11.34,53.61 C10.62,53.95 10.06,54.79 9.57,55.65 C9.57,55.65 9.09,55.49 9.09,55.49 C9.3,54.48 9.68,53.37 10.76,52.64 C11.29,52.28 12.02,52.15 12.65,52.26 C13.29,52.37 13.84,52.64 14.31,52.97 C15.25,53.65 15.94,54.53 16.43,55.49 C16.91,56.44 17.27,57.52 17.11,58.62 C17.11,58.62 16.6,58.61 16.6,58.61z "/><path id="_R_G_L_11_G_D_7_P_0" fill="#e28b6d" fill-opacity="1" fill-rule="nonzero" d=" M48.15 59.7 C48.26,60.91 48.31,62.11 48.32,63.28 C48.37,63.73 48.58,64.11 48.97,64.52 C49.34,64.93 49.81,65.35 50.23,65.94 C50.43,66.24 50.59,66.61 50.67,66.97 C50.76,67.34 50.77,67.7 50.75,68.05 C50.68,68.76 50.43,69.46 49.95,70.02 C49.71,70.31 49.4,70.55 49.06,70.72 C48.7,70.87 48.32,70.97 47.95,70.95 C47.21,70.92 46.57,70.64 46.04,70.27 C46.04,70.27 46.28,69.83 46.28,69.83 C46.84,70.02 47.4,70.15 47.9,70.06 C48.39,69.99 48.78,69.74 49.04,69.34 C49.57,68.57 49.65,67.35 49.14,66.63 C48.87,66.22 48.43,65.82 48.01,65.3 C47.58,64.81 47.18,64.07 47.21,63.3 C47.3,62.07 47.45,60.86 47.64,59.66 C47.64,59.66 48.15,59.7 48.15,59.7z "/><path id="_R_G_L_11_G_D_8_P_0" fill="#102048" fill-opacity="1" fill-rule="nonzero" d=" M34.16 52.6 C34.86,51.92 35.68,51.36 36.6,50.96 C37.52,50.55 38.56,50.33 39.62,50.39 C40.68,50.46 41.72,50.84 42.54,51.44 C43.38,52.04 44.02,52.82 44.49,53.65 C44.49,53.65 44.09,53.96 44.09,53.96 C43.37,53.36 42.68,52.8 41.93,52.38 C41.17,51.97 40.36,51.71 39.53,51.66 C37.85,51.53 36.14,52.19 34.46,53 C34.46,53 34.16,52.6 34.16,52.6z "/><path id="_R_G_L_11_G_D_9_P_0" fill="#102048" fill-opacity="1" fill-rule="nonzero" d=" M51.83 54.05 C52.12,53.15 52.88,52.43 53.73,52.01 C54.58,51.57 55.55,51.39 56.5,51.4 C57.45,51.42 58.41,51.67 59.24,52.14 C60.07,52.61 60.76,53.33 61.11,54.16 C61.11,54.16 60.69,54.44 60.69,54.44 C59.51,53.27 58.02,52.72 56.47,52.67 C54.93,52.64 53.3,53.05 52.29,54.27 C52.29,54.27 51.83,54.05 51.83,54.05z "/><path id="_R_G_L_11_G_D_10_P_0" fill="#ffffff" fill-opacity="1" fill-rule="nonzero" d=" M39.98 73.98 C39.98,73.98 51.49,74.78 51.49,74.78 C51.49,74.78 45.07,83.12 39.98,73.98z "/><path id="_R_G_L_11_G_D_11_P_0" fill="#ee6f57" fill-opacity="1" fill-rule="nonzero" d=" M62.2 62.21 C61.37,66.42 60.18,70.74 58.47,74.53 C56.23,73.5 54.67,71.26 54.67,68.66 C54.67,65.06 57.66,62.15 61.33,62.15 C61.62,62.15 61.92,62.17 62.2,62.21z "/><path id="_R_G_L_11_G_D_12_P_0" fill="#ee6f57" fill-opacity="1" fill-rule="nonzero" d=" M35.48 73.17 C38.87,71.78 40.47,67.97 39.04,64.65 C37.62,61.34 33.72,59.78 30.33,61.17 C26.94,62.56 25.35,66.38 26.77,69.69 C28.19,73.01 32.1,74.57 35.48,73.17z "/></g><g id="_R_G_L_10_G_N_12_T_0" transform=" translate(327.353, 329.433)"><g id="_R_G_L_10_G" transform=" translate(47.482, 57.677)"><path id="_R_G_L_10_G_D_0_P_0" fill="#102048" fill-opacity="1" fill-rule="nonzero" d=" M21.37 4.07 C21.07,5.54 19.94,6.55 18.85,6.33 C17.77,6.11 17.14,4.75 17.44,3.29 C17.75,1.82 18.87,0.81 19.96,1.03 C21.04,1.25 21.68,2.61 21.37,4.07z "/><path id="_R_G_L_10_G_D_1_P_0" fill="#102048" fill-opacity="1" fill-rule="nonzero" d=" M4.46 3.41 C4.7,1.94 4.02,0.6 2.92,0.43 C1.83,0.25 0.74,1.31 0.5,2.78 C0.25,4.26 0.94,5.59 2.03,5.77 C3.13,5.94 4.21,4.89 4.46,3.41z "/></g></g><g id="_R_G_L_9_G"><path id="_R_G_L_9_G_D_0_P_0" fill="#d3dfff" fill-opacity="1" fill-rule="nonzero" d=" M4.86 1.56 C3.54,5.87 2.96,10.3 3.7,14.57 C4.07,16.7 4.69,18.77 5.55,20.76 C6.43,22.74 7.53,24.63 8.78,26.45 C10.07,28.23 11.44,29.99 12.99,31.61 C13.36,32 13.76,32.48 14.16,32.95 C14.55,33.43 14.97,33.88 15.34,34.38 C15.34,34.38 16.38,35.94 16.38,35.94 C16.74,36.45 16.96,37.08 17.24,37.64 C17.55,38.2 17.69,38.85 17.88,39.47 C18.1,40.08 18.13,40.75 18.21,41.4 C18.26,41.73 18.25,42.06 18.22,42.39 C18.22,42.39 18.15,43.38 18.15,43.38 C18.1,43.71 18.02,44.02 17.94,44.35 C17.87,44.67 17.8,44.99 17.66,45.29 C17.66,45.29 17.28,46.19 17.28,46.19 C17.12,46.47 16.96,46.75 16.79,47.02 C16.64,47.3 16.44,47.56 16.25,47.81 C16.05,48.06 15.87,48.32 15.64,48.54 C14.79,49.48 13.84,50.24 12.7,50.87 C12.7,50.87 11.97,49.74 11.97,49.74 C13.58,48.36 14.9,46.5 15.35,44.58 C15.43,44.35 15.45,44.1 15.48,43.86 C15.51,43.61 15.55,43.38 15.56,43.13 C15.56,43.13 15.53,42.41 15.53,42.41 C15.53,42.17 15.52,41.93 15.44,41.69 C15.33,41.21 15.3,40.73 15.07,40.27 C14.89,39.8 14.77,39.32 14.47,38.89 C14.2,38.45 14.01,37.98 13.69,37.56 C13.69,37.56 12.76,36.29 12.76,36.29 C12.42,35.87 12.02,35.49 11.67,35.09 C11.67,35.09 10.52,33.86 10.52,33.86 C9.69,33 8.87,32.13 8.11,31.2 C7.32,30.3 6.62,29.32 5.92,28.34 C4.59,26.34 3.35,24.24 2.47,21.98 C1.6,19.71 0.98,17.34 0.76,14.93 C0.25,10.08 1.43,5.21 3.6,1.05 C3.6,1.05 4.86,1.56 4.86,1.56z "/></g><g id="_R_G_L_8_G"><path id="_R_G_L_8_G_D_0_P_0" fill="#d3dfff" fill-opacity="1" fill-rule="nonzero" d=" M21.91 0.25 C24.34,2.2 26.33,4.91 27.24,8.04 C27.72,9.59 27.93,11.21 27.95,12.82 C27.98,14.44 27.71,16.03 27.38,17.58 C27.01,19.12 26.48,20.61 25.87,22.04 C25.87,22.04 25.46,23.03 25.46,23.03 C25.34,23.33 25.19,23.64 25.08,23.95 C25.08,23.95 24.82,24.88 24.82,24.88 C24.72,25.19 24.71,25.48 24.65,25.79 C24.57,26.1 24.6,26.39 24.58,26.68 C24.55,26.99 24.63,27.26 24.66,27.54 C24.67,27.84 24.81,28.08 24.87,28.37 C25,28.62 25.09,28.9 25.27,29.14 C25.87,30.14 27.03,30.99 28.24,31.53 C28.24,31.53 27.97,32.83 27.97,32.83 C26.25,32.65 24.64,31.94 23.36,30.6 C23.03,30.28 22.79,29.88 22.53,29.5 C22.34,29.09 22.07,28.69 21.96,28.24 C21.84,27.81 21.69,27.36 21.67,26.92 C21.63,26.48 21.56,26.02 21.6,25.59 C21.64,25.16 21.61,24.71 21.71,24.3 C21.71,24.3 21.97,23.06 21.97,23.06 C22.07,22.66 22.22,22.28 22.35,21.89 C22.48,21.5 22.61,21.09 22.73,20.79 C23.27,19.48 23.66,18.14 24.02,16.8 C24.34,15.46 24.55,14.1 24.63,12.75 C24.7,11.4 24.6,10.05 24.37,8.72 C23.89,6.05 22.61,3.54 20.92,1.15 C20.92,1.15 21.91,0.25 21.91,0.25z "/></g><g id="_R_G_L_7_G"><path id="_R_G_L_7_G_D_0_P_0" fill="#ffffff" fill-opacity="1" fill-rule="nonzero" d=" M77.43 40.67 C77.43,60.97 60.97,77.43 40.67,77.43 C20.37,77.43 3.92,60.97 3.92,40.67 C3.92,20.37 20.37,3.92 40.67,3.92 C60.97,3.92 77.43,20.37 77.43,40.67z "/><path id="_R_G_L_7_G_D_1_P_0" stroke="#deeed6" stroke-linecap="round" stroke-linejoin="round" fill="none" stroke-width="1.567" stroke-opacity="1" d=" M77.43 40.67 C77.43,60.97 60.97,77.43 40.67,77.43 C20.37,77.43 3.92,60.97 3.92,40.67 C3.92,20.37 20.37,3.92 40.67,3.92 C60.97,3.92 77.43,20.37 77.43,40.67z "/><path id="_R_G_L_7_G_D_2_P_0" fill="#faf9f8" fill-opacity="1" fill-rule="nonzero" d=" M51.54 29.05 C48.66,28.38 48.65,28.38 47.99,30.89 C47.41,33.14 46.91,35.41 46.21,37.63 C45.99,38.33 46.31,39.43 45.1,39.81 C44.32,36.49 43.52,33.25 42.79,29.99 C42.55,28.93 41.93,28.63 40.93,28.64 C39.95,28.64 39.3,28.85 39.07,29.96 C38.61,32.24 38.13,34.52 37.45,36.74 C37.14,37.72 37.46,39.03 36.22,39.77 C35.78,38.02 35.36,36.36 34.95,34.7 C34.55,33.11 34.14,31.53 33.75,29.94 C33.37,28.4 32.18,28.48 31.07,28.74 C29.69,29.07 30.66,30.03 30.83,30.6 C31.97,34.56 33.28,38.48 34.35,42.46 C34.77,44.03 35.65,44.3 37.01,44.17 C38.31,44.05 38.34,42.99 38.57,42.1 C39.32,39.12 39.81,36.06 40.96,32.67 C41.83,36.3 42.61,39.38 43.3,42.49 C43.54,43.55 43.92,44.19 45.15,44.21 C46.24,44.22 47.01,43.93 47.34,42.84 C48.74,38.24 50.14,33.65 51.54,29.05z  M17.6 31.78 C18.19,31.61 18.78,31.5 19.33,31.27 C20.74,30.68 22.19,30.56 23.66,30.85 C25.2,31.14 26.21,32.8 25.83,34.43 C25.46,36.05 24.26,34.93 23.49,34.98 C22.01,35.06 20.54,34.97 19.14,35.56 C16.95,36.47 15.81,38.67 16.3,41.05 C16.75,43.19 18.44,44.47 20.86,44.45 C22.26,44.43 23.68,44.35 24.78,43.35 C25.61,42.58 26.24,42.23 26.92,43.51 C27.28,44.19 27.91,44.44 28.64,43.85 C29.25,43.37 29.97,43.05 29.44,42.01 C28.88,40.93 28.76,39.72 28.77,38.49 C28.78,36.59 28.81,34.69 28.69,32.8 C28.58,30.96 27.76,29.47 25.91,28.81 C23.44,27.94 20.98,28.05 18.56,29.05 C17.25,29.58 16.9,30.43 17.6,31.78z  M58.94 28.28 C58.65,28.28 58.39,28.27 58.13,28.28 C55.21,28.42 53.14,29.97 52.8,32.26 C52.49,34.36 53.83,36.09 56.59,37.12 C57.64,37.51 58.73,37.81 59.77,38.22 C60.53,38.52 61.11,39.04 61.08,39.95 C61.04,40.92 60.51,41.47 59.59,41.83 C57.83,42.51 56.18,42.01 54.5,41.59 C53.89,41.44 53.15,40.72 52.76,41.72 C52.42,42.6 52.74,43.38 53.73,43.8 C55.7,44.66 57.68,44.89 59.8,44.37 C62.41,43.73 64.01,42.19 64.13,39.93 C64.26,37.81 63.23,36.5 60.56,35.49 C59.43,35.07 58.23,34.81 57.12,34.34 C56.3,33.99 55.65,33.35 55.84,32.33 C56.03,31.35 56.75,30.91 57.69,30.81 C58.99,30.68 60.28,30.71 61.55,31.09 C62.13,31.26 62.9,31.94 63.18,30.76 C63.38,29.91 63.06,29.16 62.21,28.88 C61.15,28.53 60.08,28.11 58.94,28.28z "/><path id="_R_G_L_7_G_D_3_P_0" fill="#f9a543" fill-opacity="1" fill-rule="nonzero" d=" M43.85 59.32 C49.42,58.64 54.71,57.12 59.51,54.17 C60.29,53.69 61.95,53.3 61.4,52.12 C60.77,50.78 59.54,52.06 58.73,52.37 C53.15,54.45 47.41,55.64 41.47,55.69 C32.55,55.78 24.12,53.74 16.23,49.56 C15.67,49.27 15.13,48.62 14.34,49.08 C14.35,49.25 14.31,49.44 14.39,49.55 C14.53,49.76 14.73,49.93 14.93,50.1 C19.42,54.05 24.61,56.7 30.37,58.32 C35.08,59.24 39.65,59.8 43.85,59.32z "/><path id="_R_G_L_7_G_D_4_P_0" fill="#faa94c" fill-opacity="1" fill-rule="nonzero" d=" M66.5 50.77 C66.3,51.5 65.97,52.19 65.61,52.87 C65.26,53.54 65.15,54.35 64.7,54.97 C64.06,55.84 63.59,56.87 62.08,57.23 C62.63,55.46 63.19,53.95 63.56,52.4 C64.04,50.37 63.68,49.96 61.54,49.87 C59.95,49.81 58.36,49.86 56.71,49.86 C58.94,47.53 62.63,47.01 66.25,48.47 C67.08,48.66 66.77,49.73 66.5,50.77z "/><path id="_R_G_L_7_G_D_5_P_0" fill="#4d515b" fill-opacity="1" fill-rule="nonzero" d=" M51.54 29.05 C50.14,33.65 48.74,38.25 47.34,42.84 C47.01,43.93 46.24,44.22 45.15,44.21 C43.92,44.19 43.54,43.55 43.3,42.49 C42.61,39.38 41.83,36.3 40.96,32.67 C39.81,36.06 39.32,39.12 38.56,42.1 C38.34,42.99 38.31,44.05 37.01,44.18 C35.65,44.3 34.77,44.03 34.35,42.46 C33.28,38.48 31.96,34.56 30.83,30.6 C30.66,30.03 29.69,29.07 31.07,28.74 C32.18,28.48 33.37,28.41 33.75,29.95 C34.14,31.53 34.55,33.11 34.95,34.7 C35.36,36.36 35.78,38.03 36.22,39.77 C37.46,39.03 37.14,37.72 37.45,36.74 C38.13,34.52 38.61,32.24 39.07,29.96 C39.3,28.85 39.95,28.65 40.93,28.64 C41.93,28.63 42.55,28.94 42.79,29.99 C43.52,33.25 44.32,36.5 45.1,39.81 C46.31,39.43 45.99,38.33 46.21,37.63 C46.91,35.41 47.41,33.14 47.99,30.89 C48.65,28.38 48.67,28.38 51.54,29.05z "/><path id="_R_G_L_7_G_D_6_P_0" fill="#4b4f5a" fill-opacity="1" fill-rule="nonzero" d=" M17.6 31.78 C16.9,30.43 17.25,29.59 18.56,29.05 C20.98,28.06 23.44,27.94 25.91,28.81 C27.76,29.47 28.58,30.97 28.69,32.8 C28.81,34.69 28.78,36.59 28.77,38.49 C28.76,39.72 28.88,40.93 29.44,42.01 C29.97,43.05 29.25,43.37 28.64,43.85 C27.91,44.44 27.28,44.19 26.92,43.51 C26.24,42.23 25.61,42.58 24.78,43.35 C23.68,44.35 22.26,44.44 20.86,44.45 C18.44,44.47 16.75,43.19 16.3,41.05 C15.81,38.67 16.95,36.48 19.14,35.56 C20.54,34.97 22.01,35.06 23.49,34.98 C24.26,34.94 25.46,36.05 25.83,34.43 C26.21,32.8 25.2,31.14 23.67,30.85 C22.19,30.56 20.74,30.68 19.33,31.27 C18.78,31.5 18.19,31.61 17.6,31.78z  M25.87 38.94 C26,38.32 26.09,37.69 25.3,37.47 C23.71,37.01 22.1,36.73 20.55,37.6 C19.52,38.18 19.23,39.13 19.36,40.22 C19.48,41.28 20.13,41.94 21.13,42.19 C23.17,42.71 25.6,41.02 25.87,38.94z "/><path id="_R_G_L_7_G_D_7_P_0" fill="#4d515b" fill-opacity="1" fill-rule="nonzero" d=" M58.94 28.28 C60.08,28.11 61.15,28.53 62.21,28.88 C63.06,29.16 63.38,29.91 63.18,30.76 C62.9,31.94 62.13,31.26 61.55,31.09 C60.28,30.71 58.99,30.68 57.69,30.81 C56.75,30.91 56.03,31.35 55.84,32.33 C55.65,33.36 56.3,33.99 57.12,34.34 C58.23,34.81 59.43,35.07 60.56,35.49 C63.23,36.5 64.26,37.81 64.14,39.93 C64.01,42.19 62.41,43.73 59.8,44.37 C57.68,44.89 55.7,44.66 53.73,43.81 C52.74,43.38 52.42,42.6 52.76,41.72 C53.15,40.72 53.89,41.45 54.5,41.59 C56.18,42.01 57.83,42.51 59.59,41.83 C60.51,41.47 61.04,40.92 61.08,39.95 C61.11,39.04 60.53,38.52 59.77,38.22 C58.73,37.81 57.64,37.51 56.59,37.12 C53.83,36.09 52.49,34.36 52.8,32.27 C53.14,29.97 55.21,28.42 58.13,28.29 C58.39,28.27 58.65,28.28 58.94,28.28z "/><path id="_R_G_L_7_G_D_8_P_0" fill="#eeedee" fill-opacity="1" fill-rule="nonzero" d=" M25.87 38.94 C25.6,41.02 23.16,42.71 21.13,42.19 C20.13,41.94 19.48,41.28 19.36,40.22 C19.23,39.13 19.52,38.18 20.55,37.6 C22.1,36.73 23.71,37.01 25.3,37.47 C26.08,37.69 26,38.32 25.87,38.94z "/></g><g id="_R_G_L_6_G"><path id="_R_G_L_6_G_D_0_P_0" fill="#ffffff" fill-opacity="1" fill-rule="nonzero" d=" M77.43 40.67 C77.43,60.97 60.97,77.43 40.67,77.43 C20.37,77.43 3.92,60.97 3.92,40.67 C3.92,20.37 20.37,3.92 40.67,3.92 C60.97,3.92 77.43,20.37 77.43,40.67z "/><path id="_R_G_L_6_G_D_1_P_0" stroke="#deeed6" stroke-linecap="round" stroke-linejoin="round" fill="none" stroke-width="1.567" stroke-opacity="1" d=" M77.43 40.67 C77.43,60.97 60.97,77.43 40.67,77.43 C20.37,77.43 3.92,60.97 3.92,40.67 C3.92,20.37 20.37,3.92 40.67,3.92 C60.97,3.92 77.43,20.37 77.43,40.67z "/><path id="_R_G_L_6_G_D_2_P_0" fill="#fed933" fill-opacity="1" fill-rule="nonzero" d=" M22.91 59.59 C22.91,59.59 22.91,23.95 22.91,23.95 C22.99,23.95 23.07,23.95 23.15,23.95 C34.88,23.95 46.62,23.95 58.35,23.95 C58.63,23.95 58.59,23.91 58.59,24.19 C58.59,35.92 58.59,47.64 58.59,59.37 C58.59,59.44 58.59,59.52 58.59,59.59 C58.51,59.59 58.44,59.59 58.37,59.59 C46.55,59.59 34.73,59.59 22.91,59.59z  M50.22 56.8 C51.13,56.79 52.03,56.67 52.89,56.33 C53.97,55.91 54.83,55.23 55.34,54.17 C55.72,53.4 55.81,52.59 55.77,51.76 C55.71,50.41 55.18,49.29 54.12,48.43 C53.41,47.86 52.61,47.44 51.79,47.07 C51.08,46.74 50.35,46.47 49.66,46.11 C49.35,45.96 49.07,45.78 48.83,45.54 C48.25,44.95 48.21,43.55 49.38,43.16 C50.18,42.89 50.93,43.03 51.57,43.62 C51.79,43.83 51.97,44.09 52.12,44.35 C52.17,44.44 52.21,44.47 52.31,44.4 C53.1,43.89 53.9,43.37 54.7,42.86 C54.77,42.82 54.8,42.79 54.75,42.71 C54.12,41.64 53.29,40.8 52.08,40.42 C50.74,40 49.38,39.99 48.04,40.45 C46.94,40.83 46.1,41.54 45.58,42.59 C45.2,43.35 45.09,44.16 45.15,44.99 C45.23,46.19 45.68,47.22 46.57,48.05 C47.25,48.67 48.05,49.1 48.88,49.47 C49.62,49.8 50.37,50.1 51.09,50.46 C51.43,50.63 51.75,50.82 52.01,51.09 C52.39,51.49 52.51,51.97 52.39,52.5 C52.27,53.07 51.87,53.43 51.35,53.61 C50.34,53.98 49.35,53.9 48.4,53.4 C47.77,53.06 47.32,52.52 46.95,51.93 C46.89,51.83 46.84,51.8 46.73,51.87 C45.91,52.35 45.08,52.83 44.25,53.3 C44.14,53.36 44.15,53.41 44.2,53.51 C44.69,54.42 45.36,55.16 46.23,55.72 C47.45,56.5 48.79,56.79 50.22,56.8z  M42.3 46.39 C42.3,46.39 42.31,46.39 42.31,46.39 C42.31,44.42 42.31,42.45 42.31,40.48 C42.31,40.34 42.27,40.31 42.13,40.31 C41.14,40.31 40.15,40.32 39.16,40.31 C39,40.31 38.96,40.34 38.96,40.51 C38.97,44.2 38.97,47.88 38.97,51.57 C38.97,51.87 38.95,52.16 38.9,52.45 C38.79,53.16 38.42,53.59 37.8,53.74 C37.55,53.8 37.29,53.81 37.03,53.8 C36.49,53.77 36.06,53.53 35.7,53.13 C35.45,52.84 35.26,52.52 35.08,52.19 C35.03,52.11 35,52.09 34.91,52.14 C34.07,52.65 33.23,53.16 32.39,53.67 C32.32,53.71 32.29,53.75 32.33,53.84 C32.88,54.93 33.68,55.79 34.81,56.29 C36.18,56.9 37.61,56.94 39.04,56.58 C40.16,56.3 41.05,55.68 41.63,54.67 C42.07,53.92 42.28,53.09 42.29,52.22 C42.31,50.28 42.3,48.33 42.3,46.39z "/><path id="_R_G_L_6_G_D_3_P_0" fill="#fdfcf1" fill-opacity="1" fill-rule="nonzero" d=" M58.59 59.59 C58.59,59.52 58.59,59.44 58.59,59.37 C58.59,47.64 58.59,35.92 58.59,24.19 C58.59,23.91 58.63,23.95 58.35,23.95 C46.62,23.95 34.88,23.95 23.15,23.95 C23.07,23.95 22.99,23.95 22.91,23.95 C22.92,23.94 22.9,23.91 22.93,23.91 C22.98,23.92 23.02,23.91 23.07,23.91 C34.87,23.91 46.67,23.92 58.46,23.91 C58.6,23.91 58.63,23.94 58.63,24.08 C58.63,35.87 58.63,47.67 58.62,59.47 C58.62,59.52 58.66,59.59 58.59,59.62 C58.59,59.61 58.59,59.6 58.59,59.59z "/><path id="_R_G_L_6_G_D_4_P_0" fill="#f3e585" fill-opacity="1" fill-rule="nonzero" d=" M58.59 59.59 C58.59,59.6 58.59,59.61 58.59,59.62 C46.75,59.62 34.91,59.62 23.07,59.62 C23.02,59.62 22.95,59.66 22.91,59.59 C34.73,59.59 46.55,59.59 58.37,59.59 C58.44,59.59 58.51,59.59 58.59,59.59z "/><path id="_R_G_L_6_G_D_5_P_0" fill="#4c4c4a" fill-opacity="1" fill-rule="nonzero" d=" M50.22 56.8 C48.79,56.79 47.45,56.5 46.23,55.72 C45.36,55.16 44.69,54.42 44.2,53.51 C44.15,53.41 44.14,53.37 44.25,53.3 C45.08,52.83 45.9,52.35 46.73,51.87 C46.84,51.8 46.88,51.83 46.95,51.93 C47.32,52.53 47.77,53.06 48.4,53.4 C49.34,53.9 50.34,53.98 51.35,53.61 C51.87,53.43 52.27,53.07 52.39,52.5 C52.51,51.98 52.4,51.49 52.01,51.09 C51.75,50.82 51.43,50.63 51.09,50.46 C50.37,50.1 49.62,49.8 48.88,49.48 C48.05,49.1 47.25,48.67 46.57,48.05 C45.68,47.22 45.23,46.19 45.15,44.99 C45.09,44.16 45.2,43.35 45.58,42.59 C46.1,41.54 46.94,40.84 48.04,40.45 C49.38,39.99 50.74,40 52.08,40.42 C53.29,40.8 54.12,41.64 54.75,42.71 C54.8,42.79 54.77,42.82 54.7,42.86 C53.9,43.38 53.11,43.89 52.31,44.4 C52.21,44.47 52.17,44.44 52.12,44.35 C51.97,44.09 51.79,43.84 51.57,43.62 C50.93,43.03 50.18,42.89 49.38,43.16 C48.21,43.55 48.25,44.95 48.83,45.54 C49.07,45.78 49.35,45.96 49.66,46.12 C50.35,46.47 51.08,46.74 51.79,47.07 C52.61,47.45 53.41,47.86 54.12,48.43 C55.18,49.29 55.71,50.41 55.77,51.76 C55.81,52.59 55.72,53.4 55.34,54.17 C54.83,55.23 53.97,55.91 52.89,56.33 C52.03,56.67 51.13,56.79 50.22,56.8z "/><path id="_R_G_L_6_G_D_6_P_0" fill="#4c4c4a" fill-opacity="1" fill-rule="nonzero" d=" M42.3 46.39 C42.3,48.33 42.31,50.28 42.29,52.22 C42.28,53.09 42.07,53.91 41.63,54.67 C41.05,55.68 40.16,56.3 39.04,56.58 C37.61,56.94 36.18,56.9 34.81,56.29 C33.68,55.79 32.88,54.93 32.33,53.84 C32.29,53.75 32.32,53.71 32.39,53.67 C33.23,53.16 34.07,52.65 34.91,52.14 C35,52.09 35.03,52.1 35.08,52.19 C35.26,52.52 35.45,52.84 35.7,53.13 C36.06,53.53 36.49,53.77 37.03,53.8 C37.29,53.81 37.55,53.8 37.8,53.74 C38.42,53.59 38.79,53.16 38.9,52.45 C38.95,52.16 38.97,51.87 38.97,51.57 C38.97,47.88 38.97,44.2 38.96,40.51 C38.96,40.34 39,40.31 39.16,40.31 C40.15,40.32 41.14,40.31 42.13,40.31 C42.27,40.31 42.31,40.34 42.31,40.48 C42.31,42.45 42.31,44.42 42.31,46.39 C42.31,46.39 42.3,46.39 42.3,46.39z "/></g><g id="_R_G_L_5_G"><path id="_R_G_L_5_G_D_0_P_0" fill="#ffffff" fill-opacity="1" fill-rule="nonzero" d=" M77.43 40.67 C77.43,60.97 60.97,77.43 40.67,77.43 C20.37,77.43 3.92,60.97 3.92,40.67 C3.92,20.37 20.37,3.92 40.67,3.92 C60.97,3.92 77.43,20.37 77.43,40.67z "/><path id="_R_G_L_5_G_D_1_P_0" stroke="#deeed6" stroke-linecap="round" stroke-linejoin="round" fill="none" stroke-width="1.567" stroke-opacity="1" d=" M77.43 40.67 C77.43,60.97 60.97,77.43 40.67,77.43 C20.37,77.43 3.92,60.97 3.92,40.67 C3.92,20.37 20.37,3.92 40.67,3.92 C60.97,3.92 77.43,20.37 77.43,40.67z "/><path id="_R_G_L_5_G_D_2_P_0" fill="#6ab263" fill-opacity="1" fill-rule="nonzero" d=" M29.57 44.84 C30.99,50.93 34.18,55.86 38.96,59.76 C40.68,58.01 40.26,55.68 40.58,53.56 C40.85,51.74 40.17,49.83 40.99,48.04 C41.01,45.62 41.02,43.2 41.03,40.77 C40.22,40.07 40.77,39.2 40.77,38.35 C40.73,33.62 40.64,28.77 40.67,24.04 C40.67,23.19 40.7,22.74 41.03,21.52 C41.26,20.26 40.65,18.9 41.49,17.71 C41.17,17.06 41.17,16.16 40.38,15.99 C39.79,16.69 39.35,17.38 38.76,17.9 C33.79,22.32 30.92,27.91 29.65,34.44 C29.23,37.64 29.12,41.05 29.57,44.84z "/><path id="_R_G_L_5_G_D_3_P_0" fill="#5ea65d" fill-opacity="1" fill-rule="nonzero" d=" M40.99 48.04 C41.01,45.62 41.02,43.19 41.03,40.77 C41.03,34.36 41.03,27.94 41.03,21.52 C41.26,20.26 40.65,18.89 41.49,17.71 C45.67,22.14 49.3,26.92 50.86,33 C53.35,42.79 51.41,51.38 44.1,58.49 C43.55,59.04 42.83,59.41 42.19,59.87 C41.62,58.66 41.01,57.5 41.03,56.08 C41.08,53.4 41.01,50.72 40.99,48.04z "/><path id="_R_G_L_5_G_D_4_P_0" fill="#a4b590" fill-opacity="1" fill-rule="nonzero" d=" M40.99 48.04 C41.01,50.72 41.08,53.4 41.03,56.08 C41.01,57.5 41.62,58.66 42.19,59.87 C41.45,61.92 41.64,64.1 41.52,66.77 C39.49,64.51 40.8,61.52 38.96,59.76 C40.68,58.01 40.26,55.68 40.58,53.56 C40.85,51.74 40.11,47.39 40.99,48.04z "/><path id="_R_G_L_5_G_D_5_P_0" fill="#89c285" fill-opacity="1" fill-rule="nonzero" d=" M41.03 16.42 C41.03,22.84 41.03,50.07 41.04,56.48 C40.22,55.77 40.56,54.81 40.56,53.97 C40.52,49.23 40.52,23.68 40.56,18.94 C40.56,18.09 40.22,17.13 41.03,16.42z "/></g><g id="_R_G_L_4_G"><path id="_R_G_L_4_G_D_0_P_0" fill="#ffffff" fill-opacity="1" fill-rule="nonzero" d=" M77.43 40.67 C77.43,60.97 60.97,77.43 40.67,77.43 C20.37,77.43 3.92,60.97 3.92,40.67 C3.92,20.37 20.37,3.92 40.67,3.92 C60.97,3.92 77.43,20.37 77.43,40.67z "/><path id="_R_G_L_4_G_D_1_P_0" stroke="#deeed6" stroke-linecap="round" stroke-linejoin="round" fill="none" stroke-width="1.567" stroke-opacity="1" d=" M77.43 40.67 C77.43,60.97 60.97,77.43 40.67,77.43 C20.37,77.43 3.92,60.97 3.92,40.67 C3.92,20.37 20.37,3.92 40.67,3.92 C60.97,3.92 77.43,20.37 77.43,40.67z "/><path id="_R_G_L_4_G_D_2_P_0" fill="#5296cf" fill-opacity="1" fill-rule="nonzero" d=" M60.43 44.12 C60.43,44.12 60.43,53.34 60.43,53.34 C60.43,57.81 55.96,60.42 51.03,60.4 C44.09,60.38 37.15,60.45 30.22,60.38 C25.19,60.32 21.49,56.66 21.36,51.7 C21.3,49.18 21.4,46.65 21.43,44.13 C23.23,44.37 25.15,43.49 26.83,44.74 C26.65,45.65 26.55,46.54 27.54,47.13 C27.54,47.13 42.58,47.13 42.58,47.13 C43.03,45.82 42.33,45.03 41.93,44.15 C42.84,44.15 43.75,44.15 44.65,44.15 C46.1,46.55 47.56,48.94 49,51.34 C49.71,52.54 50.5,53.43 51.98,52.46 C53.28,50.46 50.82,49.24 50.94,47.53 C52.14,47.12 53.4,47.7 54.37,47.04 C55.25,46.37 55.07,45.55 54.93,44.74 C56.64,43.48 58.6,44.38 60.43,44.12z  M29.82 49.69 C28.53,52.2 28.78,52.65 31.48,52.68 C32.02,52.07 32.7,51.49 32.63,50.48 C31.92,49.63 31.03,49.41 29.82,49.69z "/><path id="_R_G_L_4_G_D_3_P_0" fill="#68c6f0" fill-opacity="1" fill-rule="nonzero" d=" M28.06 21.32 C28.06,21.32 50.81,21.32 50.81,21.32 C54.1,21.32 57.31,22.82 59.1,25.58 C59.27,25.83 59.42,26.09 59.57,26.36 C60.31,27.74 60.54,29.33 60.43,30.89 C60.41,31.19 60.4,31.56 60.4,32.16 C60.4,32.16 43.91,32.06 43.91,32.06 C44.17,31.23 44.88,30.51 44.56,29.52 C44.17,28.71 43.57,28.29 42.64,28.51 C41.66,28.72 41.55,29.91 40.67,30.26 C39.89,29.7 39.61,28.53 38.39,28.44 C37.55,28.53 37.01,29.04 36.79,30.09 C37.04,30.71 37.34,31.45 37.64,32.18 C37.64,32.18 21.43,32.19 21.43,32.19 C21.06,29.07 21.76,26.3 23.91,23.9 C24.77,22.94 24.99,22.44 26.57,21.66 C27.03,21.43 27.55,21.32 28.06,21.32z "/><path id="_R_G_L_4_G_D_4_P_0" fill="#5ab1e2" fill-opacity="1" fill-rule="nonzero" d=" M43.91 32.06 C49.42,32.1 54.92,32.14 60.43,32.17 C60.43,32.17 60.43,44.12 60.43,44.12 C58.6,44.38 56.65,43.48 54.93,44.74 C52.96,43.46 50.66,44.56 48.38,43.84 C47.05,41.61 45.63,39.24 44.09,36.65 C41.84,39.64 43.56,41.87 44.66,44.15 C43.75,44.15 42.84,44.15 41.93,44.15 C41.93,44.15 36.61,44.15 36.61,44.15 C39.29,39.71 41.6,35.89 43.91,32.06z "/><path id="_R_G_L_4_G_D_5_P_0" fill="#5ab1e2" fill-opacity="1" fill-rule="nonzero" d=" M21.43 44.13 C21.43,40.15 21.43,36.17 21.43,32.19 C26.83,32.18 32.24,32.18 37.64,32.18 C38.22,32.76 38.68,33.4 38.63,34.43 C36.8,37.55 34.9,40.78 33.06,43.9 C30.89,44.49 28.71,43.51 26.83,44.74 C25.15,43.49 23.23,44.36 21.43,44.13z "/><path id="_R_G_L_4_G_D_6_P_0" fill="#f7fcff" fill-opacity="1" fill-rule="nonzero" d=" M26.83 44.74 C28.71,43.51 30.89,44.49 33.07,43.9 C34.9,40.78 36.8,37.55 38.63,34.43 C38.68,33.4 38.23,32.76 37.64,32.18 C37.34,31.45 37.04,30.71 36.79,30.09 C37.01,29.04 37.55,28.53 38.39,28.44 C39.61,28.54 39.89,29.7 40.67,30.26 C41.55,29.91 41.66,28.72 42.64,28.51 C43.57,28.29 44.17,28.71 44.56,29.52 C44.88,30.51 44.17,31.23 43.91,32.06 C41.6,35.89 39.29,39.71 36.61,44.15 C36.61,44.15 41.93,44.15 41.93,44.15 C42.33,45.02 43.03,45.82 42.58,47.13 C42.58,47.13 27.54,47.13 27.54,47.13 C26.55,46.54 26.65,45.65 26.83,44.74z "/><path id="_R_G_L_4_G_D_7_P_0" fill="#f7fcff" fill-opacity="1" fill-rule="nonzero" d=" M44.66 44.15 C43.56,41.87 41.84,39.64 44.09,36.64 C45.63,39.24 47.04,41.6 48.38,43.83 C50.66,44.56 52.96,43.45 54.93,44.74 C55.08,45.55 55.25,46.37 54.37,47.04 C53.4,47.7 52.14,47.11 50.95,47.53 C50.82,49.24 53.28,50.46 51.98,52.46 C50.5,53.42 49.71,52.54 49,51.34 C47.57,48.94 46.11,46.55 44.66,44.15z "/><path id="_R_G_L_4_G_D_8_P_0" fill="#f0f8fd" fill-opacity="1" fill-rule="nonzero" d=" M29.82 49.69 C31.03,49.41 31.92,49.63 32.63,50.48 C32.7,51.49 32.03,52.07 31.48,52.68 C28.78,52.65 28.53,52.2 29.82,49.69z "/></g><g id="_R_G_L_3_G"><path id="_R_G_L_3_G_D_0_P_0" fill="#ffffff" fill-opacity="1" fill-rule="nonzero" d=" M77.43 40.67 C77.43,60.97 60.97,77.43 40.67,77.43 C20.37,77.43 3.92,60.97 3.92,40.67 C3.92,20.37 20.37,3.92 40.67,3.92 C60.97,3.92 77.43,20.37 77.43,40.67z "/><path id="_R_G_L_3_G_D_1_P_0" stroke="#deeed6" stroke-linecap="round" stroke-linejoin="round" fill="none" stroke-width="1.567" stroke-opacity="1" d=" M77.43 40.67 C77.43,60.97 60.97,77.43 40.67,77.43 C20.37,77.43 3.92,60.97 3.92,40.67 C3.92,20.37 20.37,3.92 40.67,3.92 C60.97,3.92 77.43,20.37 77.43,40.67z "/><path id="_R_G_L_3_G_D_2_P_0" fill="#4f82c1" fill-opacity="1" fill-rule="nonzero" d=" M51.54 27.09 C53.99,28.88 55.34,31.39 56.35,34.26 C59.42,36.51 61.26,39.57 61.45,43.51 C61.68,48.44 58.55,52.92 53.76,54.6 C53.3,54.75 52.64,54.5 52.44,55.2 C52.44,55.2 41.28,55.2 41.28,55.2 C41.28,52.93 41.28,50.67 41.27,48.4 C44.17,48.37 47.07,48.38 49.97,48.3 C52.16,48.24 54.1,46.61 54.51,44.61 C54.9,42.72 53.76,40.81 51.72,39.75 C51.12,39.44 50.3,39.56 49.83,38.73 C50.28,35.96 48.75,33.84 47.03,31.8 C48.53,30.23 50.04,28.66 51.54,27.09z "/><path id="_R_G_L_3_G_D_3_P_0" fill="#fdc63d" fill-opacity="1" fill-rule="nonzero" d=" M22.12 48.44 C22.98,50.16 23.86,51.85 25.74,52.7 C27.49,51.35 29.02,49.79 30.39,48.07 C29.99,47.62 29.56,47.17 29.17,46.7 C27.56,44.75 27.59,42.56 29.33,40.82 C30.91,39.24 32.69,38.72 35.22,40.42 C35.72,40.76 36.13,41.23 36.65,41.7 C38.52,40.42 39.9,38.76 41.45,37.12 C39.99,34.48 37.3,33.75 34.97,32.54 C31.94,32.07 29.17,33.04 26.41,34.04 C24.23,35.73 22.48,37.72 21.62,40.4 C21.19,42.9 21.42,45.61 22.12,48.44z "/><path id="_R_G_L_3_G_D_4_P_0" fill="#60b561" fill-opacity="1" fill-rule="nonzero" d=" M29.11 55.2 C29.11,55.2 41.28,55.2 41.28,55.2 C41.28,52.93 41.28,50.66 41.27,48.4 C38.59,48.37 35.91,48.36 33.23,48.31 C32.28,48.29 31.34,48.15 30.39,48.07 C29.02,49.79 27.49,51.35 25.74,52.7 C26.29,53.76 27.37,54.61 29.11,55.2z "/><path id="_R_G_L_3_G_D_5_P_0" fill="#f15d43" fill-opacity="1" fill-rule="nonzero" d=" M34.97 32.54 C31.94,32.07 29.17,33.04 26.41,34.04 C28.78,24.89 40.56,19.33 50.02,25.67 C50.6,26.05 51.21,26.42 51.54,27.09 C50.04,28.66 48.53,30.23 47.03,31.8 C41.98,28.8 38.34,29.55 34.97,32.54z "/></g><g id="_R_G_L_2_G"><path id="_R_G_L_2_G_D_0_P_0" fill="#ffffff" fill-opacity="1" fill-rule="nonzero" d=" M77.43 40.67 C77.43,60.97 60.97,77.43 40.67,77.43 C20.37,77.43 3.92,60.97 3.92,40.67 C3.92,20.37 20.37,3.92 40.67,3.92 C60.97,3.92 77.43,20.37 77.43,40.67z "/><path id="_R_G_L_2_G_D_1_P_0" stroke="#deeed6" stroke-linecap="round" stroke-linejoin="round" fill="none" stroke-width="1.567" stroke-opacity="1" d=" M77.43 40.67 C77.43,60.97 60.97,77.43 40.67,77.43 C20.37,77.43 3.92,60.97 3.92,40.67 C3.92,20.37 20.37,3.92 40.67,3.92 C60.97,3.92 77.43,20.37 77.43,40.67z "/><path id="_R_G_L_2_G_D_2_P_0" fill="#e8544f" fill-opacity="1" fill-rule="nonzero" d=" M20.82 32.78 C20.82,32.78 20.82,31.3 20.82,31.3 C27.2,28.38 33.58,25.46 39.96,22.54 C41.45,21.86 42.92,21.71 44.46,22.4 C50.05,24.9 55.65,27.38 61.26,29.84 C62.19,30.25 62.46,30.86 62.22,31.78 C56.36,34.07 50.69,36.8 45.01,39.5 C42.18,40.85 39.61,41.65 36.72,39.81 C36.08,39.4 35.23,39.18 34.48,38.85 C29.93,36.82 25.37,34.8 20.82,32.78z  M51.95 33.29 C53.77,32.79 55.54,32.19 57.39,31.02 C55.13,30.43 53.5,29.09 51.44,28.86 C49.27,29.47 47.22,30.38 44.95,31.45 C46.74,32.18 48.25,32.77 49.74,33.4 C50.5,33.72 51.25,34.13 51.95,33.29z  M36.41 31.55 C33.72,28.64 28.49,28.69 26.21,31.52 C28.26,34.34 33.59,34.42 36.41,31.55z  M44.92 33.66 C41.4,34.16 38.33,34.42 34.88,35.34 C37.48,36.44 39.57,37.33 41.79,38.26 C42.73,36.88 43.63,35.55 44.92,33.66z  M42.23 30.7 C42.45,28.57 43.72,28.31 45.17,28.14 C44.7,27.12 43.47,26.49 44.41,25.18 C42.36,26.4 40.56,25.3 38.63,24.93 C38.91,25.61 39.18,26.03 39.06,26.65 C38.38,26.95 37.64,27.27 36.57,27.74 C38.17,28.01 39.36,28.21 40.63,28.42 C41.03,28.99 41.45,29.58 42.23,30.7z "/><path id="_R_G_L_2_G_D_3_P_0" fill="#be4243" fill-opacity="1" fill-rule="nonzero" d=" M62.22 39.19 C62.22,39.19 62.22,42.5 62.22,42.5 C61.77,43.63 60.23,43.39 59.9,44.55 C58.95,44.48 58.17,44.96 57.36,45.35 C52.79,47.56 48.22,49.74 43.67,51.97 C41.65,52.97 39.73,53.16 37.63,52.07 C34.66,50.53 31.64,49.06 28.54,47.79 C26.67,47.02 24.98,45.77 22.88,45.59 C22.54,44.62 21.55,44.55 20.82,44.12 C20.82,44.12 20.82,40.18 20.82,40.18 C25.33,42.26 29.83,44.36 34.35,46.41 C35.91,47.12 37.51,47.7 39.1,48.32 C40.05,48.69 41.03,48.7 41.97,48.33 C43.18,47.85 44.37,47.33 45.56,46.79 C51.11,44.26 56.67,41.73 62.22,39.19z "/><path id="_R_G_L_2_G_D_4_P_0" fill="#be4243" fill-opacity="1" fill-rule="nonzero" d=" M62.21 46.61 C62.21,46.61 62.21,50.18 62.21,50.18 C61.6,50.97 60.78,51.18 60.05,51.53 C54.29,54.31 48.52,57.09 42.76,59.85 C42.47,59.99 42.11,59.99 42.05,60.4 C42.05,60.4 39.09,60.4 39.09,60.4 C35.56,58.71 32.01,57.05 28.5,55.32 C25.94,54.06 23.26,53.02 20.82,51.52 C20.82,51.52 20.82,47.58 20.82,47.58 C21.22,47.85 21.59,48.2 22.03,48.4 C27.24,50.71 32.49,52.92 37.67,55.32 C39.64,56.23 41.49,56.12 43.32,55.3 C49.64,52.44 55.92,49.51 62.21,46.61z "/><path id="_R_G_L_2_G_D_5_P_0" fill="#be4243" fill-opacity="1" fill-rule="nonzero" d=" M62.23 31.78 C62.23,31.78 62.23,34.98 62.23,34.98 C61.7,36.02 60.5,35.93 59.91,36.7 C59.39,36.67 58.97,36.93 58.53,37.15 C53.61,39.52 48.66,41.83 43.77,44.27 C41.47,45.42 39.3,45.45 37,44.32 C32.61,42.16 28.19,40.08 23.77,37.97 C23.49,37.84 23.16,37.79 22.85,37.71 C22.24,37.25 21.63,36.77 20.82,36.72 C20.82,36.72 20.82,32.78 20.82,32.78 C25.37,34.8 29.93,36.82 34.48,38.85 C35.23,39.18 36.08,39.4 36.72,39.81 C39.61,41.65 42.18,40.85 45.01,39.5 C50.69,36.8 56.36,34.07 62.23,31.78z "/><path id="_R_G_L_2_G_D_6_P_0" fill="#e6514d" fill-opacity="1" fill-rule="nonzero" d=" M22.85 37.71 C23.16,37.79 23.49,37.84 23.77,37.97 C28.19,40.08 32.61,42.16 37,44.32 C39.3,45.45 41.47,45.42 43.77,44.27 C48.66,41.83 53.61,39.52 58.53,37.15 C58.97,36.93 59.39,36.67 59.91,36.7 C60.4,36.96 60.87,37.27 61.39,37.46 C62.24,37.79 62.42,38.39 62.22,39.19 C56.67,41.72 51.11,44.26 45.56,46.79 C44.37,47.33 43.18,47.85 41.97,48.33 C41.03,48.7 40.05,48.69 39.1,48.32 C37.51,47.7 35.9,47.12 34.35,46.41 C29.83,44.36 25.33,42.26 20.82,40.18 C20.82,40.18 20.82,38.7 20.82,38.7 C21.63,38.65 22.29,38.28 22.85,37.71z "/><path id="_R_G_L_2_G_D_7_P_0" fill="#e6514d" fill-opacity="1" fill-rule="nonzero" d=" M62.22 46.61 C55.92,49.51 49.64,52.44 43.32,55.29 C41.49,56.12 39.64,56.23 37.67,55.32 C32.49,52.92 27.24,50.71 22.03,48.4 C21.59,48.2 21.22,47.85 20.82,47.58 C20.82,47.58 20.82,46.59 20.82,46.59 C21.48,46.19 22.06,45.63 22.89,45.59 C24.98,45.77 26.67,47.02 28.54,47.79 C31.64,49.06 34.66,50.53 37.63,52.07 C39.73,53.16 41.65,52.97 43.67,51.97 C48.22,49.74 52.8,47.56 57.36,45.35 C58.17,44.96 58.95,44.49 59.9,44.55 C60.92,44.96 62.47,44.77 62.22,46.61z "/><path id="_R_G_L_2_G_D_8_P_0" fill="#fdedea" fill-opacity="1" fill-rule="nonzero" d=" M36.41 31.55 C33.59,34.42 28.26,34.34 26.21,31.52 C28.49,28.69 33.72,28.64 36.41,31.55z "/><path id="_R_G_L_2_G_D_9_P_0" fill="#fdedea" fill-opacity="1" fill-rule="nonzero" d=" M44.92 33.66 C43.63,35.55 42.73,36.88 41.79,38.27 C39.57,37.33 37.48,36.44 34.88,35.35 C38.33,34.43 41.4,34.16 44.92,33.66z "/><path id="_R_G_L_2_G_D_10_P_0" fill="#fdedea" fill-opacity="1" fill-rule="nonzero" d=" M42.23 30.7 C41.44,29.58 41.03,28.99 40.63,28.42 C39.36,28.21 38.17,28.01 36.57,27.74 C37.64,27.27 38.38,26.95 39.06,26.65 C39.18,26.03 38.91,25.61 38.63,24.93 C40.56,25.3 42.36,26.4 44.41,25.18 C43.47,26.49 44.7,27.12 45.17,28.14 C43.72,28.31 42.45,28.57 42.23,30.7z "/><path id="_R_G_L_2_G_D_11_P_0" fill="#be4243" fill-opacity="1" fill-rule="nonzero" d=" M51.95 33.29 C51.25,34.13 50.51,33.73 49.74,33.4 C48.25,32.77 46.74,32.17 44.95,31.45 C47.22,30.38 49.27,29.47 51.44,28.86 C51.67,30.33 50.89,31.91 51.95,33.29z "/><path id="_R_G_L_2_G_D_12_P_0" fill="#ac4041" fill-opacity="1" fill-rule="nonzero" d=" M51.95 33.29 C50.89,31.91 51.67,30.33 51.44,28.86 C53.5,29.09 55.13,30.43 57.39,31.02 C55.54,32.19 53.77,32.79 51.95,33.29z "/></g><g id="_R_G_L_1_G"><path id="_R_G_L_1_G_D_0_P_0" fill="#ffffff" fill-opacity="1" fill-rule="nonzero" d=" M77.43 40.67 C77.43,60.97 60.97,77.43 40.67,77.43 C20.37,77.43 3.92,60.97 3.92,40.67 C3.92,20.37 20.37,3.92 40.67,3.92 C60.97,3.92 77.43,20.37 77.43,40.67z "/><path id="_R_G_L_1_G_D_1_P_0" stroke="#deeed6" stroke-linecap="round" stroke-linejoin="round" fill="none" stroke-width="1.567" stroke-opacity="1" d=" M77.43 40.67 C77.43,60.97 60.97,77.43 40.67,77.43 C20.37,77.43 3.92,60.97 3.92,40.67 C3.92,20.37 20.37,3.92 40.67,3.92 C60.97,3.92 77.43,20.37 77.43,40.67z "/><path id="_R_G_L_1_G_D_2_P_0" fill="#66c5ef" fill-opacity="1" fill-rule="nonzero" d=" M18.16 40.44 C18.16,40.44 41.01,17.24 41.01,17.24 C41.01,17.24 55.02,17.24 55.02,17.24 C55.02,17.24 25.09,47.44 25.09,47.44 C25.09,47.44 18.16,40.44 18.16,40.44z "/><path id="_R_G_L_1_G_D_3_P_0" fill="#66c5ef" fill-opacity="1" fill-rule="nonzero" d=" M28.46 51.28 C28.46,51.28 41.08,38.52 41.08,38.52 C41.08,38.52 55.22,38.65 55.22,38.65 C55.22,38.65 35.46,58.08 35.46,58.08 C35.46,58.08 28.46,51.28 28.46,51.28z "/><path id="_R_G_L_1_G_D_4_P_0" fill="#4facdf" fill-opacity="1" fill-rule="nonzero" d=" M28.73 51.21 C28.73,51.21 35.04,44.63 35.04,44.63 C35.04,44.63 42.39,51.42 42.39,51.42 C42.39,51.42 35.66,58.28 35.66,58.28 C35.66,58.28 28.73,51.21 28.73,51.21z "/><path id="_R_G_L_1_G_D_5_P_0" fill="#3a6ba5" fill-opacity="1" fill-rule="nonzero" d=" M42.39 51.42 C42.39,51.42 55.02,63.91 55.02,63.91 C55.02,63.91 41.08,63.91 41.08,63.91 C41.08,63.91 35.39,58.08 35.39,58.08 C35.39,58.08 42.39,51.42 42.39,51.42z "/></g><g id="_R_G_L_0_G"><path id="_R_G_L_0_G_D_0_P_0" fill="#ffffff" fill-opacity="1" fill-rule="nonzero" d=" M77.43 40.67 C77.43,60.97 60.97,77.43 40.67,77.43 C20.37,77.43 3.92,60.97 3.92,40.67 C3.92,20.37 20.37,3.92 40.67,3.92 C60.97,3.92 77.43,20.37 77.43,40.67z "/><path id="_R_G_L_0_G_D_1_P_0" stroke="#deeed6" stroke-linecap="round" stroke-linejoin="round" fill="none" stroke-width="1.567" stroke-opacity="1" d=" M77.43 40.67 C77.43,60.97 60.97,77.43 40.67,77.43 C20.37,77.43 3.92,60.97 3.92,40.67 C3.92,20.37 20.37,3.92 40.67,3.92 C60.97,3.92 77.43,20.37 77.43,40.67z "/><path id="_R_G_L_0_G_D_2_P_0" fill="#fffefe" fill-opacity="1" fill-rule="nonzero" d=" M47.72 50.43 C47.6,50.39 47.51,50.46 47.46,50.55 C47.3,50.87 47.3,51.19 47.46,51.51 C47.51,51.6 47.6,51.66 47.72,51.63 C47.78,51.84 47.93,51.98 48.13,52 C48.5,52.05 48.81,51.96 49.05,51.66 C49.22,51.45 49.4,50.96 49.29,50.75 C49.22,50.62 49.19,50.37 48.93,50.43 C48.96,50.3 48.9,50.21 48.8,50.16 C48.49,50 48.16,50 47.85,50.16 C47.76,50.21 47.69,50.3 47.72,50.43z  M39.64 43.65 C39.64,43.65 39.64,43.1 39.64,43.1 C39.64,41.68 39.64,40.27 39.64,38.85 C39.64,38.66 39.65,38.47 39.45,38.36 C39.39,38.23 39.28,38.16 39.18,38.07 C38.91,37.85 38.58,37.72 38.28,37.54 C37.58,37.13 36.86,36.72 36.15,36.32 C35.89,36.17 35.6,36.06 35.36,35.89 C34.96,35.59 34.48,35.44 34.1,35.11 C34.06,35.07 33.95,35.11 33.87,35.11 C33.8,34.94 33.7,35.01 33.59,35.06 C33.19,35.28 32.78,35.47 32.4,35.72 C32.31,35.78 32.14,35.79 32.11,35.94 C32.11,35.94 32.01,35.94 32.01,35.94 C31.95,35.94 31.92,35.97 31.92,36.04 C31.48,36.21 31.08,36.47 30.67,36.7 C30.1,37.03 29.52,37.36 28.96,37.71 C28.71,37.87 28.42,37.96 28.21,38.17 C27.94,38.29 27.92,38.52 27.92,38.76 C27.93,40.14 27.93,41.53 27.93,42.91 C27.93,43.56 27.92,44.22 27.93,44.88 C27.93,44.94 27.89,45.04 28.02,45.04 C28.04,45.16 28.14,45.23 28.22,45.28 C28.55,45.49 28.88,45.68 29.22,45.88 C29.53,46.05 29.85,46.21 30.16,46.39 C30.63,46.67 31.09,46.97 31.57,47.24 C32.1,47.53 32.63,47.83 33.14,48.15 C33.33,48.27 33.52,48.42 33.78,48.38 C34.3,48.23 34.74,47.95 35.17,47.64 C35.57,47.42 35.99,47.22 36.37,46.98 C36.66,46.81 36.98,46.69 37.22,46.43 C37.28,46.42 37.33,46.44 37.39,46.41 C38.03,46.03 38.66,45.66 39.3,45.31 C39.53,45.19 39.66,44.96 39.64,44.67 C39.64,44.67 39.64,43.65 39.64,43.65z  M50.05 35.93 C49.72,36 49.51,35.81 49.27,35.68 C48.98,35.52 48.69,35.36 48.41,35.18 C48.2,35.06 48,35.06 47.81,35.17 C47.42,35.38 47.04,35.62 46.65,35.85 C46.39,36 46.12,36.12 45.86,36.28 C45.16,36.69 44.48,37.14 43.76,37.51 C43.36,37.72 42.99,38 42.56,38.19 C42.36,38.28 42.17,38.48 42.23,38.79 C42.26,38.92 42.24,39.07 42.24,39.21 C42.24,41.06 42.24,42.92 42.23,44.77 C42.23,45.01 42.31,45.17 42.47,45.33 C42.67,45.52 42.93,45.58 43.14,45.73 C43.57,46.03 44.05,46.25 44.49,46.52 C44.89,46.78 45.32,47 45.72,47.25 C45.94,47.38 46.16,47.53 46.39,47.64 C46.75,47.82 47.1,48.03 47.44,48.24 C47.82,48.48 48.18,48.59 48.62,48.3 C49.03,48.04 49.46,47.79 49.9,47.57 C50.39,47.32 50.84,47.01 51.32,46.76 C51.86,46.49 52.36,46.13 52.9,45.85 C53.13,45.74 53.34,45.58 53.57,45.46 C53.78,45.35 53.91,45.17 54,44.95 C54.06,44.8 54.04,44.65 54.04,44.5 C54.04,39.69 54.04,34.88 54.04,30.08 C54.04,29.98 54.06,29.89 54.04,29.8 C53.99,29.57 53.97,29.29 53.73,29.19 C53.4,29.06 53.12,28.86 52.82,28.69 C52.43,28.46 52.01,28.27 51.62,28.01 C51.31,27.8 50.97,27.65 50.63,27.48 C50.3,27.31 50.06,27.44 50.05,27.8 C50.04,27.89 50.05,27.99 50.05,28.08 C50.05,28.08 50.05,35.46 50.05,35.46 C50.05,35.46 50.05,35.93 50.05,35.93z  M56.55 41.75 C56.55,42.69 56.55,43.64 56.55,44.58 C56.56,44.87 56.62,45.16 56.89,45.32 C57.36,45.6 57.84,45.85 58.32,46.11 C58.65,46.3 58.99,46.45 59.3,46.65 C59.81,46.97 60.34,47.23 60.84,47.54 C61.24,47.8 61.67,48.01 62.07,48.27 C62.28,48.42 62.54,48.45 62.78,48.29 C63.18,48.02 63.63,47.79 64.06,47.56 C64.67,47.24 65.26,46.88 65.86,46.55 C66.18,46.39 66.19,46.17 65.91,45.97 C65.37,45.58 64.76,45.29 64.19,44.96 C63.89,44.79 63.58,44.63 63.29,44.45 C62.73,44.12 62.14,43.83 61.6,43.46 C61.32,43.27 60.99,43.15 60.7,42.94 C60.54,42.81 60.45,42.68 60.45,42.48 C60.46,41.99 60.46,41.5 60.45,41 C60.45,40.75 60.57,40.55 60.76,40.43 C61.21,40.16 61.69,39.93 62.15,39.65 C62.41,39.49 62.63,39.57 62.85,39.69 C62.95,39.75 63.03,39.83 63.14,39.88 C63.47,40.06 63.79,40.27 64.11,40.45 C64.34,40.58 64.36,40.71 64.36,40.92 C64.36,41.33 64.35,41.75 64.36,42.17 C64.37,42.54 64.69,42.73 64.97,42.52 C65.44,42.17 66,41.94 66.49,41.61 C67,41.28 67.55,41.01 68.06,40.69 C68.27,40.55 68.34,40.39 68.35,40.19 C68.36,39.68 68.35,39.17 68.36,38.66 C68.36,38.46 68.29,38.3 68.14,38.19 C67.84,37.99 67.53,37.79 67.21,37.64 C66.88,37.49 66.61,37.22 66.25,37.14 C65.78,36.77 65.23,36.54 64.73,36.22 C64.49,36.06 64.22,35.94 63.98,35.79 C63.58,35.55 63.18,35.33 62.78,35.1 C62.51,34.95 62.27,35 62.04,35.15 C61.33,35.61 60.59,36 59.86,36.41 C59.41,36.66 58.98,36.95 58.51,37.19 C58.05,37.43 57.63,37.74 57.17,37.98 C56.72,38.22 56.54,38.56 56.55,39.06 C56.56,39.95 56.55,40.85 56.55,41.75z  M44.35 53.4 C44.49,52.83 44.22,52.4 43.89,52.06 C43.57,51.72 43.08,51.59 42.63,51.55 C42.09,51.52 41.53,51.48 40.99,51.63 C40.66,51.73 40.33,51.85 40.07,52.09 C39.78,52.36 39.67,52.95 39.72,53.4 C39.76,53.85 40.04,54.08 40.38,54.28 C40.91,54.59 41.52,54.61 42.11,54.68 C42.41,54.71 42.69,54.82 43,54.79 C43.08,54.79 43.15,54.86 43.24,54.89 C43.62,55 43.74,55.34 43.54,55.66 C43.37,55.93 43.11,56.07 42.8,56.08 C42.33,56.1 41.87,56.1 41.4,56.08 C41.18,56.08 40.98,56 40.81,55.83 C40.58,55.62 40.45,55.38 40.46,55.09 C40.46,55.09 39.54,55.09 39.54,55.09 C39.54,55.18 39.54,55.26 39.54,55.33 C39.55,55.93 39.82,56.37 40.35,56.65 C40.81,56.88 41.48,57.03 41.87,57.02 C42,57.02 42.12,57.01 42.24,57.02 C42.86,57.04 43.42,56.87 43.96,56.57 C44.1,56.49 44.2,56.41 44.28,56.28 C44.43,56.05 44.62,55.83 44.56,55.52 C44.79,55.25 44.54,54.98 44.52,54.72 C44.51,54.52 44.31,54.34 44.1,54.23 C43.63,53.98 43.11,53.83 42.58,53.78 C42.28,53.76 41.98,53.69 41.69,53.65 C41.46,53.62 41.2,53.6 40.97,53.49 C40.74,53.39 40.61,53.23 40.66,53.02 C40.72,52.74 41.03,52.49 41.32,52.47 C41.5,52.46 41.68,52.51 41.85,52.38 C41.92,52.33 42.09,52.33 42.16,52.39 C42.3,52.48 42.45,52.45 42.59,52.47 C42.95,52.54 43.31,52.66 43.4,53.04 C43.48,53.36 43.62,53.43 43.9,53.4 C44.05,53.38 44.21,53.4 44.35,53.4z  M63.61 41.73 C63.61,41.59 63.59,41.45 63.62,41.31 C63.66,41.11 63.54,40.97 63.4,40.9 C63.11,40.76 62.85,40.59 62.58,40.43 C62.48,40.37 62.39,40.39 62.29,40.46 C62.05,40.63 61.81,40.8 61.55,40.92 C61.38,41 61.31,41.12 61.3,41.27 C61.28,41.57 61.28,41.86 61.3,42.15 C61.31,42.25 61.38,42.4 61.46,42.43 C61.76,42.56 62.01,42.75 62.29,42.9 C62.43,42.98 62.56,43.03 62.71,42.86 C62.81,42.74 63.01,42.71 63.16,42.63 C63.61,42.37 63.61,42.37 63.61,41.87 C63.61,41.87 63.61,41.73 63.61,41.73z "/><path id="_R_G_L_0_G_D_3_P_0" fill="#4d4d4d" fill-opacity="1" fill-rule="nonzero" d=" M13.52 38.36 C13.67,38.16 13.88,38 14.18,37.84 C14.93,37.41 15.7,37.01 16.43,36.53 C16.64,36.39 16.88,36.26 17.1,36.15 C17.73,35.83 18.34,35.46 18.94,35.1 C19.24,34.92 19.46,34.9 19.78,35.08 C20.59,35.52 21.4,35.97 22.18,36.46 C22.42,36.62 22.68,36.73 22.94,36.87 C23.49,37.18 24.03,37.52 24.59,37.81 C24.77,37.9 24.95,38.01 25.09,38.17 C25.24,38.33 25.33,38.5 25.33,38.72 C25.32,41.32 25.32,43.92 25.32,46.52 C25.32,46.64 25.33,46.74 25.24,46.86 C25.11,47.02 25,47.08 24.81,46.99 C24.36,46.8 23.96,46.51 23.53,46.28 C23.23,46.12 22.94,45.92 22.62,45.78 C22.32,45.65 22.05,45.46 21.76,45.3 C21.48,45.16 21.32,44.89 21.32,44.52 C21.34,43.33 21.31,42.14 21.34,40.95 C21.34,40.66 21.22,40.48 21.02,40.34 C20.93,40.27 20.83,40.18 20.73,40.14 C20.36,40 20.06,39.75 19.71,39.58 C19.5,39.47 19.21,39.46 19.02,39.6 C18.69,39.83 18.34,40.05 17.97,40.21 C17.84,40.27 17.73,40.38 17.62,40.46 C17.46,40.57 17.43,40.78 17.43,40.97 C17.42,41.21 17.42,41.44 17.42,41.67 C17.42,42.66 17.42,43.65 17.43,44.64 C17.43,44.96 17.31,45.15 17.03,45.31 C16.5,45.61 15.98,45.91 15.45,46.21 C15.02,46.45 14.6,46.71 14.17,46.94 C13.83,47.13 13.82,47.13 13.52,46.9 C13.52,46.9 13.52,38.36 13.52,38.36z "/><path id="_R_G_L_0_G_D_4_P_0" fill="#7aa975" fill-opacity="1" fill-rule="nonzero" d=" M40.19 60.92 C39.92,60.65 39.59,60.49 39.26,60.32 C38.99,60.18 38.76,59.97 38.47,59.88 C38.41,59.86 38.32,59.8 38.34,59.71 C38.35,59.61 38.42,59.53 38.51,59.53 C38.73,59.53 38.88,59.37 39.07,59.3 C39.19,59.25 39.27,59.23 39.39,59.32 C39.71,59.54 40.05,59.74 40.39,59.94 C40.53,60.03 40.7,60.03 40.85,59.93 C41.2,59.7 41.58,59.52 41.94,59.3 C42.41,59.02 42.9,58.78 43.36,58.46 C43.59,58.3 43.86,58.18 44.11,58.04 C44.46,57.84 44.82,57.65 45.15,57.41 C45.3,57.31 45.49,57.25 45.66,57.18 C45.66,56.95 45.68,56.72 45.68,56.49 C45.68,54.82 45.67,53.15 45.68,51.48 C45.69,51.24 45.57,51.17 45.4,51.07 C44.9,50.8 44.42,50.52 43.94,50.22 C43.71,50.07 43.46,49.96 43.22,49.8 C42.77,49.5 42.27,49.27 41.79,49 C41.48,48.83 41.17,48.64 40.86,48.45 C40.72,48.36 40.5,48.36 40.36,48.45 C39.86,48.77 39.34,49.05 38.82,49.34 C38.34,49.61 37.89,49.92 37.41,50.19 C37.12,50.35 36.84,50.54 36.54,50.67 C36.27,50.78 36.07,51 35.78,51.09 C35.63,51.14 35.54,51.31 35.54,51.54 C35.55,53.3 35.55,55.06 35.54,56.83 C35.54,57.05 35.62,57.2 35.78,57.28 C36.17,57.49 36.56,57.71 36.94,57.94 C37.2,58.1 37.49,58.08 37.77,58 C38.04,57.92 38.07,57.65 38.14,57.42 C38.17,57.34 38.15,57.24 38.15,57.15 C38.15,57.15 38.15,52.18 38.15,52.18 C38.15,52.07 38.14,51.96 38.15,51.85 C38.16,51.72 38.23,51.63 38.38,51.63 C38.54,51.63 38.69,51.63 38.85,51.63 C38.99,51.63 39.06,51.72 39.08,51.85 C39.09,51.95 39.08,52.04 39.08,52.13 C39.08,53.91 39.07,55.69 39.08,57.47 C39.09,57.84 38.96,58.17 38.78,58.46 C38.58,58.77 38.25,58.97 37.84,58.97 C37.73,58.97 37.62,58.97 37.52,58.97 C37.28,58.96 37.02,59.02 36.81,58.87 C36.62,58.74 36.38,58.73 36.19,58.56 C35.98,58.38 35.69,58.28 35.44,58.14 C35.18,58 34.98,57.81 34.79,57.6 C34.68,57.48 34.61,57.33 34.61,57.16 C34.62,55.18 34.62,53.2 34.61,51.22 C34.61,51.05 34.66,50.91 34.75,50.81 C34.96,50.59 35.18,50.37 35.48,50.23 C35.99,49.98 36.45,49.65 36.94,49.37 C37.23,49.21 37.51,49.04 37.8,48.88 C38.33,48.58 38.85,48.26 39.38,47.96 C39.64,47.81 39.89,47.65 40.17,47.53 C40.6,47.34 41.02,47.44 41.39,47.68 C41.9,48.02 42.43,48.3 42.96,48.6 C43.44,48.87 43.9,49.17 44.38,49.45 C44.69,49.63 45.02,49.78 45.32,49.97 C45.69,50.19 46.08,50.36 46.37,50.7 C46.52,50.87 46.61,51.06 46.61,51.3 C46.61,53.23 46.61,55.16 46.61,57.1 C46.61,57.32 46.53,57.49 46.39,57.66 C46.17,57.96 45.84,58.13 45.54,58.29 C45.22,58.46 44.91,58.65 44.59,58.81 C44.1,59.06 43.65,59.38 43.18,59.66 C42.86,59.84 42.54,60 42.23,60.18 C41.82,60.41 41.41,60.63 41.03,60.92 C41.03,60.92 40.19,60.92 40.19,60.92z "/><path id="_R_G_L_0_G_D_5_P_0" fill="#4d4d4d" fill-opacity="1" fill-rule="nonzero" d=" M50.05 35.93 C50.05,35.93 50.05,35.46 50.05,35.46 C50.05,35.46 50.05,28.08 50.05,28.08 C50.05,27.99 50.04,27.89 50.05,27.8 C50.06,27.44 50.3,27.31 50.63,27.48 C50.97,27.65 51.31,27.8 51.62,28.01 C52.01,28.27 52.43,28.46 52.83,28.69 C53.12,28.86 53.4,29.06 53.73,29.19 C53.96,29.29 53.99,29.57 54.04,29.8 C54.06,29.89 54.04,29.98 54.04,30.08 C54.04,34.89 54.04,39.69 54.04,44.5 C54.04,44.65 54.06,44.8 54,44.95 C53.91,45.17 53.77,45.35 53.57,45.46 C53.34,45.57 53.13,45.73 52.9,45.85 C52.36,46.13 51.86,46.49 51.33,46.76 C50.84,47.01 50.39,47.32 49.9,47.57 C49.46,47.79 49.03,48.04 48.62,48.3 C48.18,48.59 47.82,48.48 47.44,48.24 C47.1,48.03 46.75,47.82 46.39,47.64 C46.16,47.53 45.94,47.38 45.72,47.25 C45.32,47 44.89,46.78 44.49,46.52 C44.04,46.25 43.57,46.03 43.14,45.73 C42.94,45.58 42.67,45.52 42.47,45.33 C42.31,45.17 42.23,45.01 42.23,44.77 C42.24,42.92 42.24,41.06 42.24,39.2 C42.24,39.07 42.26,38.92 42.23,38.79 C42.17,38.48 42.36,38.28 42.56,38.19 C42.98,38 43.36,37.72 43.77,37.51 C44.48,37.14 45.16,36.69 45.86,36.28 C46.12,36.12 46.39,36 46.65,35.85 C47.04,35.62 47.42,35.38 47.81,35.16 C48,35.06 48.21,35.06 48.41,35.18 C48.69,35.36 48.98,35.52 49.27,35.67 C49.51,35.81 49.72,36 50.05,35.93z  M50.05 41.82 C50.05,41.51 50.04,41.2 50.05,40.89 C50.05,40.74 50,40.66 49.86,40.58 C49.61,40.43 49.35,40.3 49.11,40.15 C48.81,39.96 48.52,39.79 48.21,39.62 C48.11,39.57 48.08,39.56 47.98,39.62 C47.8,39.74 47.6,39.83 47.42,39.94 C47.06,40.15 46.71,40.39 46.33,40.58 C46.15,40.67 46.14,40.78 46.14,40.93 C46.14,41.49 46.15,42.04 46.14,42.6 C46.13,42.87 46.23,43 46.47,43.11 C46.61,43.18 46.76,43.24 46.9,43.33 C47.24,43.56 47.59,43.79 47.98,43.96 C48.07,44 48.11,44.02 48.21,43.96 C48.74,43.65 49.29,43.38 49.83,43.07 C49.97,42.99 50.07,42.86 50.05,42.65 C50.02,42.37 50.05,42.09 50.05,41.82z "/><path id="_R_G_L_0_G_D_6_P_0" fill="#4d4d4d" fill-opacity="1" fill-rule="nonzero" d=" M56.55 41.75 C56.55,40.85 56.56,39.95 56.55,39.06 C56.54,38.56 56.72,38.21 57.17,37.98 C57.63,37.74 58.05,37.43 58.52,37.19 C58.98,36.95 59.41,36.66 59.86,36.41 C60.59,36 61.33,35.61 62.04,35.15 C62.27,35 62.51,34.95 62.78,35.1 C63.18,35.33 63.59,35.55 63.98,35.79 C64.22,35.94 64.49,36.06 64.73,36.22 C65.23,36.54 65.78,36.77 66.25,37.14 C66.61,37.22 66.88,37.49 67.21,37.64 C67.53,37.79 67.84,37.99 68.14,38.19 C68.29,38.3 68.36,38.46 68.36,38.66 C68.35,39.17 68.37,39.68 68.35,40.19 C68.34,40.39 68.27,40.55 68.06,40.69 C67.55,41.01 67,41.28 66.49,41.61 C66,41.93 65.44,42.16 64.97,42.52 C64.69,42.73 64.37,42.54 64.36,42.17 C64.35,41.75 64.36,41.33 64.36,40.92 C64.36,40.71 64.34,40.58 64.11,40.46 C63.79,40.27 63.47,40.06 63.14,39.88 C63.03,39.83 62.95,39.75 62.85,39.69 C62.63,39.57 62.41,39.49 62.15,39.65 C61.69,39.93 61.21,40.16 60.76,40.43 C60.57,40.55 60.45,40.75 60.45,41 C60.46,41.5 60.46,41.99 60.45,42.49 C60.45,42.68 60.54,42.81 60.7,42.94 C60.99,43.15 61.32,43.27 61.6,43.46 C62.14,43.83 62.73,44.12 63.29,44.45 C63.58,44.63 63.89,44.78 64.19,44.96 C64.76,45.29 65.36,45.58 65.91,45.97 C66.19,46.17 66.18,46.39 65.86,46.55 C65.26,46.88 64.67,47.24 64.06,47.56 C63.63,47.79 63.18,48.02 62.78,48.29 C62.54,48.45 62.28,48.41 62.07,48.27 C61.68,48 61.24,47.8 60.84,47.54 C60.34,47.23 59.81,46.97 59.3,46.65 C58.99,46.45 58.65,46.3 58.32,46.11 C57.84,45.85 57.36,45.6 56.89,45.31 C56.62,45.16 56.56,44.87 56.55,44.58 C56.55,43.64 56.55,42.69 56.55,41.75z "/><path id="_R_G_L_0_G_D_7_P_0" fill="#82b472" fill-opacity="1" fill-rule="nonzero" d=" M35.17 47.64 C34.74,47.95 34.3,48.23 33.78,48.38 C33.82,48.23 33.7,48.13 33.65,48.02 C33.27,47.33 32.88,46.64 32.51,45.95 C32.39,45.72 32.3,45.47 32.12,45.27 C32.07,45.21 31.97,45.08 32.02,44.95 C32.14,44.81 32.11,44.64 32.11,44.48 C32.11,41.63 32.11,38.79 32.11,35.94 C32.14,35.79 32.31,35.78 32.4,35.71 C32.78,35.47 33.19,35.28 33.59,35.06 C33.7,35.01 33.8,34.94 33.87,35.11 C33.96,35.24 34.07,35.37 34.13,35.51 C34.35,36.02 34.73,36.43 34.92,36.95 C35.11,37.05 35.08,37.22 35.08,37.39 C35.08,38.42 35.08,39.46 35.08,40.49 C35.08,42.72 35.08,44.95 35.08,47.17 C35.08,47.33 35.05,47.5 35.17,47.64z "/><path id="_R_G_L_0_G_D_8_P_0" fill="#72a369" fill-opacity="1" fill-rule="nonzero" d=" M35.17 47.64 C35.05,47.5 35.08,47.33 35.08,47.17 C35.08,44.94 35.08,42.72 35.08,40.49 C35.08,39.46 35.08,38.42 35.08,37.39 C35.08,37.22 35.11,37.04 34.92,36.94 C34.73,36.43 34.35,36.01 34.13,35.51 C34.07,35.37 33.96,35.24 33.87,35.11 C33.95,35.11 34.06,35.07 34.1,35.11 C34.48,35.44 34.96,35.59 35.36,35.88 C35.6,36.06 35.89,36.17 36.15,36.32 C36.86,36.72 37.58,37.13 38.28,37.54 C38.58,37.71 38.91,37.85 39.18,38.07 C39.28,38.16 39.39,38.23 39.45,38.36 C39.08,38.74 38.88,39.25 38.64,39.71 C38.35,40.25 38.01,40.77 37.78,41.34 C37.72,41.48 37.64,41.44 37.58,41.36 C37.48,41.24 37.39,41.11 37.32,40.96 C37.29,40.9 37.28,40.86 37.2,40.86 C37.12,40.87 37.13,40.94 37.13,41 C37.13,41.71 37.13,42.42 37.13,43.12 C37.13,44.16 37.13,45.19 37.13,46.22 C37.13,46.3 37.07,46.42 37.22,46.43 C36.98,46.69 36.66,46.81 36.37,46.99 C35.99,47.22 35.57,47.42 35.17,47.64z "/><path id="_R_G_L_0_G_D_9_P_0" fill="#5d9759" fill-opacity="1" fill-rule="nonzero" d=" M32.02 44.95 C31.97,45.08 32.07,45.2 32.12,45.27 C32.3,45.47 32.39,45.72 32.51,45.95 C32.88,46.64 33.27,47.33 33.65,48.02 C33.7,48.13 33.82,48.23 33.78,48.38 C33.52,48.42 33.33,48.26 33.14,48.15 C32.63,47.83 32.1,47.53 31.57,47.24 C31.09,46.97 30.63,46.67 30.16,46.39 C29.85,46.21 29.53,46.05 29.22,45.87 C28.88,45.68 28.55,45.49 28.22,45.28 C28.14,45.23 28.04,45.16 28.02,45.04 C28.05,45.03 28.08,45.03 28.1,45.01 C28.38,44.51 28.66,44.01 28.94,43.51 C28.99,43.43 28.92,43.36 28.86,43.33 C28.55,43.19 28.27,42.97 27.93,42.9 C27.93,41.52 27.93,40.14 27.93,38.76 C27.93,38.52 27.94,38.29 28.2,38.17 C28.41,38.41 28.52,38.7 28.67,38.96 C29.02,39.56 29.33,40.17 29.68,40.77 C30.14,41.53 30.55,42.32 30.95,43.1 C31.15,43.49 31.42,43.83 31.55,44.24 C31.79,44.42 31.79,44.76 32.02,44.95z "/><path id="_R_G_L_0_G_D_10_P_0" fill="#7ec064" fill-opacity="1" fill-rule="nonzero" d=" M32.02 44.95 C31.79,44.76 31.79,44.42 31.55,44.24 C31.42,43.83 31.15,43.49 30.95,43.11 C30.55,42.32 30.14,41.53 29.68,40.77 C29.33,40.17 29.02,39.56 28.67,38.97 C28.52,38.7 28.41,38.41 28.2,38.17 C28.42,37.96 28.71,37.87 28.96,37.71 C29.52,37.36 30.1,37.03 30.67,36.7 C31.08,36.47 31.48,36.21 31.92,36.03 C31.99,36.04 32.02,36.01 32.02,35.94 C32.02,35.94 32.11,35.94 32.11,35.94 C32.11,38.79 32.11,41.63 32.11,44.48 C32.11,44.64 32.14,44.81 32.02,44.95z "/><path id="_R_G_L_0_G_D_11_P_0" fill="#7aa975" fill-opacity="1" fill-rule="nonzero" d=" M44.35 53.4 C44.21,53.4 44.05,53.38 43.9,53.4 C43.62,53.43 43.48,53.36 43.4,53.04 C43.31,52.66 42.95,52.54 42.59,52.47 C42.45,52.45 42.3,52.48 42.16,52.38 C42.09,52.33 41.92,52.33 41.85,52.38 C41.68,52.51 41.5,52.46 41.32,52.47 C41.03,52.49 40.72,52.74 40.66,53.02 C40.61,53.23 40.74,53.39 40.97,53.5 C41.2,53.6 41.46,53.62 41.69,53.65 C41.98,53.69 42.28,53.76 42.58,53.78 C43.11,53.83 43.63,53.98 44.1,54.23 C44.31,54.34 44.51,54.52 44.52,54.72 C44.54,54.99 44.79,55.25 44.56,55.52 C44.62,55.83 44.43,56.05 44.28,56.28 C44.2,56.41 44.1,56.49 43.96,56.57 C43.42,56.88 42.86,57.04 42.24,57.02 C42.12,57.01 42,57.01 41.87,57.02 C41.48,57.03 40.81,56.88 40.35,56.65 C39.82,56.37 39.55,55.93 39.54,55.33 C39.54,55.26 39.54,55.18 39.54,55.09 C39.54,55.09 40.46,55.09 40.46,55.09 C40.45,55.38 40.58,55.62 40.81,55.83 C40.98,56 41.18,56.08 41.4,56.08 C41.87,56.1 42.33,56.1 42.8,56.09 C43.11,56.07 43.37,55.93 43.54,55.66 C43.74,55.34 43.62,55.01 43.24,54.89 C43.15,54.87 43.08,54.79 43,54.79 C42.69,54.82 42.41,54.71 42.11,54.68 C41.52,54.61 40.91,54.59 40.38,54.28 C40.04,54.08 39.76,53.85 39.72,53.4 C39.67,52.95 39.78,52.36 40.07,52.09 C40.33,51.85 40.66,51.73 41,51.63 C41.53,51.48 42.09,51.52 42.63,51.56 C43.08,51.59 43.57,51.72 43.89,52.06 C44.22,52.4 44.49,52.83 44.35,53.4z "/><path id="_R_G_L_0_G_D_12_P_0" fill="#5d9759" fill-opacity="1" fill-rule="nonzero" d=" M37.22 46.43 C37.07,46.42 37.13,46.3 37.13,46.22 C37.13,45.19 37.13,44.16 37.13,43.12 C37.13,42.42 37.13,41.71 37.13,41 C37.13,40.94 37.11,40.87 37.2,40.86 C37.28,40.86 37.29,40.9 37.32,40.96 C37.39,41.11 37.48,41.24 37.58,41.36 C37.64,41.44 37.72,41.48 37.78,41.34 C38.01,40.77 38.35,40.25 38.64,39.71 C38.88,39.25 39.08,38.74 39.45,38.36 C39.65,38.47 39.64,38.66 39.64,38.85 C39.64,40.27 39.64,41.68 39.64,43.09 C39.64,43.09 39.64,43.65 39.64,43.65 C39.51,43.62 39.36,43.7 39.24,43.59 C39.17,43.52 39.07,43.57 38.98,43.56 C38.89,43.55 38.87,43.64 38.9,43.67 C39.16,43.97 39.26,44.36 39.5,44.67 C39.52,44.69 39.59,44.67 39.64,44.67 C39.66,44.96 39.53,45.19 39.3,45.31 C38.66,45.66 38.02,46.03 37.39,46.4 C37.33,46.44 37.28,46.42 37.22,46.43z "/><path id="_R_G_L_0_G_D_13_P_0" fill="#7aa975" fill-opacity="1" fill-rule="nonzero" d=" M63.62 41.73 C63.62,41.73 63.62,41.87 63.62,41.87 C63.62,42.37 63.62,42.37 63.16,42.63 C63.01,42.71 62.81,42.74 62.71,42.86 C62.56,43.03 62.43,42.98 62.29,42.9 C62.01,42.75 61.76,42.56 61.46,42.43 C61.38,42.4 61.31,42.25 61.3,42.15 C61.28,41.86 61.28,41.57 61.3,41.27 C61.31,41.12 61.38,41 61.55,40.92 C61.81,40.8 62.05,40.63 62.29,40.46 C62.39,40.39 62.48,40.37 62.58,40.43 C62.85,40.59 63.12,40.76 63.4,40.9 C63.54,40.97 63.66,41.11 63.62,41.31 C63.59,41.45 63.62,41.59 63.62,41.73z "/><path id="_R_G_L_0_G_D_14_P_0" fill="#7ec064" fill-opacity="1" fill-rule="nonzero" d=" M27.93 42.91 C28.27,42.98 28.55,43.19 28.86,43.33 C28.92,43.36 28.99,43.43 28.94,43.52 C28.66,44.02 28.38,44.51 28.1,45.01 C28.08,45.03 28.04,45.03 28.02,45.04 C27.89,45.04 27.93,44.95 27.93,44.88 C27.92,44.22 27.93,43.56 27.93,42.91z "/><path id="_R_G_L_0_G_D_15_P_0" fill="#7aa975" fill-opacity="1" fill-rule="nonzero" d=" M48.93 50.43 C49.19,50.37 49.22,50.62 49.29,50.75 C49.4,50.96 49.22,51.45 49.05,51.66 C48.81,51.95 48.5,52.05 48.13,52 C47.93,51.98 47.78,51.84 47.72,51.63 C47.86,51.59 47.95,51.7 48.05,51.74 C48.39,51.87 48.57,51.85 48.84,51.58 C49.14,51.29 49.17,51.11 49.04,50.75 C49,50.65 48.89,50.56 48.93,50.43z "/><path id="_R_G_L_0_G_D_16_P_0" fill="#72a369" fill-opacity="1" fill-rule="nonzero" d=" M39.64 44.67 C39.59,44.67 39.52,44.69 39.5,44.67 C39.26,44.36 39.16,43.97 38.9,43.67 C38.87,43.64 38.89,43.55 38.98,43.56 C39.07,43.57 39.17,43.51 39.25,43.59 C39.36,43.7 39.51,43.62 39.64,43.65 C39.64,43.65 39.64,44.67 39.64,44.67z "/><path id="_R_G_L_0_G_D_17_P_0" fill="#7aa975" fill-opacity="1" fill-rule="nonzero" d=" M47.72 50.43 C47.69,50.3 47.76,50.21 47.85,50.16 C48.16,50 48.49,50 48.8,50.16 C48.9,50.21 48.96,50.3 48.93,50.43 C48.86,50.43 48.8,50.42 48.73,50.37 C48.47,50.19 48.19,50.19 47.93,50.37 C47.86,50.42 47.8,50.43 47.72,50.43z "/><path id="_R_G_L_0_G_D_18_P_0" fill="#7aa975" fill-opacity="1" fill-rule="nonzero" d=" M47.72 51.63 C47.6,51.66 47.51,51.6 47.46,51.5 C47.3,51.19 47.3,50.87 47.46,50.55 C47.51,50.46 47.6,50.4 47.72,50.43 C47.72,50.47 47.74,50.54 47.72,50.56 C47.41,50.83 47.52,51.14 47.67,51.43 C47.7,51.5 47.72,51.56 47.72,51.63z "/><path id="_R_G_L_0_G_D_19_P_0" fill="#82b472" fill-opacity="1" fill-rule="nonzero" d=" M32.02 35.94 C32.02,36.01 31.99,36.04 31.92,36.04 C31.92,35.97 31.95,35.94 32.02,35.94z "/><path id="_R_G_L_0_G_D_20_P_0" fill="#fffefe" fill-opacity="1" fill-rule="nonzero" d=" M50.04 41.82 C50.04,42.09 50.02,42.37 50.05,42.65 C50.07,42.86 49.97,42.99 49.83,43.07 C49.29,43.38 48.74,43.65 48.21,43.96 C48.11,44.02 48.07,44 47.98,43.96 C47.59,43.79 47.24,43.56 46.89,43.33 C46.76,43.24 46.61,43.18 46.47,43.11 C46.23,43 46.13,42.87 46.14,42.6 C46.15,42.04 46.14,41.49 46.14,40.93 C46.14,40.78 46.15,40.67 46.33,40.58 C46.71,40.39 47.06,40.15 47.42,39.94 C47.6,39.83 47.8,39.74 47.98,39.62 C48.08,39.56 48.11,39.57 48.21,39.62 C48.52,39.79 48.81,39.96 49.11,40.15 C49.35,40.3 49.61,40.43 49.86,40.58 C50,40.66 50.05,40.74 50.05,40.89 C50.04,41.2 50.04,41.51 50.04,41.82z "/><path id="_R_G_L_0_G_D_21_P_0" fill="#fffefe" fill-opacity="1" fill-rule="nonzero" d=" M47.72 51.63 C47.72,51.56 47.7,51.5 47.67,51.43 C47.52,51.14 47.41,50.83 47.72,50.56 C47.74,50.54 47.72,50.47 47.72,50.43 C47.8,50.43 47.86,50.42 47.93,50.37 C48.19,50.19 48.47,50.19 48.73,50.37 C48.8,50.42 48.86,50.43 48.93,50.43 C48.89,50.56 49,50.65 49.04,50.75 C49.17,51.11 49.14,51.29 48.84,51.58 C48.57,51.85 48.39,51.87 48.05,51.74 C47.95,51.7 47.86,51.59 47.72,51.63z  M48 50.53 C48,50.76 47.99,50.99 48.01,51.21 C48.01,51.32 47.93,51.51 48.07,51.53 C48.29,51.56 48.16,51.36 48.18,51.26 C48.2,51.18 48.24,51.17 48.31,51.17 C48.37,51.17 48.47,51.14 48.47,51.27 C48.47,51.33 48.46,51.39 48.47,51.45 C48.48,51.6 48.6,51.54 48.68,51.54 C48.76,51.54 48.77,51.43 48.74,51.4 C48.62,51.31 48.66,51.18 48.65,51.07 C48.65,50.89 48.65,50.71 48.65,50.53 C48.65,50.53 48,50.53 48,50.53z "/><path id="_R_G_L_0_G_D_22_P_0" fill="#7aa975" fill-opacity="1" fill-rule="nonzero" d=" M48 50.53 C48,50.53 48.65,50.53 48.65,50.53 C48.65,50.71 48.65,50.89 48.65,51.07 C48.66,51.18 48.62,51.31 48.74,51.4 C48.77,51.43 48.76,51.53 48.68,51.54 C48.6,51.54 48.48,51.6 48.47,51.45 C48.46,51.39 48.47,51.33 48.47,51.26 C48.47,51.14 48.37,51.17 48.31,51.17 C48.24,51.17 48.2,51.18 48.18,51.26 C48.16,51.36 48.29,51.56 48.07,51.53 C47.93,51.51 48.01,51.32 48.01,51.21 C47.99,50.99 48,50.76 48,50.53z  M48.34 50.98 C48.43,51 48.47,50.97 48.47,50.87 C48.47,50.76 48.46,50.69 48.33,50.7 C48.24,50.71 48.18,50.72 48.18,50.82 C48.18,50.93 48.19,51.01 48.34,50.98z "/><path id="_R_G_L_0_G_D_23_P_0" fill="#fffefe" fill-opacity="1" fill-rule="nonzero" d=" M48.34 50.98 C48.19,51.01 48.18,50.93 48.18,50.82 C48.18,50.72 48.24,50.71 48.33,50.7 C48.46,50.69 48.47,50.76 48.47,50.86 C48.47,50.97 48.43,51 48.34,50.98z "/></g></g><g id="time_group"/></svg>